G04 #@! TF.FileFunction,Copper,L1,Top,Signal*
%FSLAX46Y46*%
G04 Gerber Fmt 4.6, Leading zero omitted, Abs format (unit mm)*
G04 Created by KiCad (PCBNEW 4.0.4-stable) date Saturday, October 22, 2016 'PMt' 11:23:18 PM*
%MOMM*%
%LPD*%
G01*
G04 APERTURE LIST*
%ADD10C,0.150000*%
%ADD11R,0.579120X1.198880*%
%ADD12R,1.998980X1.998980*%
%ADD13R,1.000760X1.000760*%
%ADD14R,0.685800X3.600000*%
%ADD15C,3.000000*%
%ADD16C,0.304800*%
G04 APERTURE END LIST*
D10*
D11*
X27450040Y-52189820D03*
X28400000Y-52189820D03*
X29349960Y-52189820D03*
X29349960Y-49990180D03*
X28400000Y-49990180D03*
X27450040Y-49990180D03*
X50310040Y-52189820D03*
X51260000Y-52189820D03*
X52209960Y-52189820D03*
X52209960Y-49990180D03*
X51260000Y-49990180D03*
X50310040Y-49990180D03*
X69360040Y-52189820D03*
X70310000Y-52189820D03*
X71259960Y-52189820D03*
X71259960Y-49990180D03*
X70310000Y-49990180D03*
X69360040Y-49990180D03*
X65550040Y-52189820D03*
X66500000Y-52189820D03*
X67449960Y-52189820D03*
X67449960Y-49990180D03*
X66500000Y-49990180D03*
X65550040Y-49990180D03*
X61740040Y-52189820D03*
X62690000Y-52189820D03*
X63639960Y-52189820D03*
X63639960Y-49990180D03*
X62690000Y-49990180D03*
X61740040Y-49990180D03*
X57930040Y-52189820D03*
X58880000Y-52189820D03*
X59829960Y-52189820D03*
X59829960Y-49990180D03*
X58880000Y-49990180D03*
X57930040Y-49990180D03*
X54120040Y-52189820D03*
X55070000Y-52189820D03*
X56019960Y-52189820D03*
X56019960Y-49990180D03*
X55070000Y-49990180D03*
X54120040Y-49990180D03*
X46500040Y-52189820D03*
X47450000Y-52189820D03*
X48399960Y-52189820D03*
X48399960Y-49990180D03*
X47450000Y-49990180D03*
X46500040Y-49990180D03*
X42690040Y-52189820D03*
X43640000Y-52189820D03*
X44589960Y-52189820D03*
X44589960Y-49990180D03*
X43640000Y-49990180D03*
X42690040Y-49990180D03*
X38880040Y-52189820D03*
X39830000Y-52189820D03*
X40779960Y-52189820D03*
X40779960Y-49990180D03*
X39830000Y-49990180D03*
X38880040Y-49990180D03*
X35070040Y-52189820D03*
X36020000Y-52189820D03*
X36969960Y-52189820D03*
X36969960Y-49990180D03*
X36020000Y-49990180D03*
X35070040Y-49990180D03*
X31260040Y-52189820D03*
X32210000Y-52189820D03*
X33159960Y-52189820D03*
X33159960Y-49990180D03*
X32210000Y-49990180D03*
X31260040Y-49990180D03*
D12*
X32210000Y-26960000D03*
X34750000Y-26960000D03*
X37290000Y-26960000D03*
X39830000Y-26960000D03*
X42370000Y-26960000D03*
X44910000Y-26960000D03*
X47450000Y-26960000D03*
X49990000Y-26960000D03*
X52530000Y-26960000D03*
X55070000Y-26960000D03*
X57610000Y-26960000D03*
X60150000Y-26960000D03*
X62690000Y-26960000D03*
X65230000Y-26960000D03*
X67770000Y-26960000D03*
X57610000Y-72680000D03*
X60150000Y-72680000D03*
X55070000Y-72680000D03*
X52530000Y-72680000D03*
X49990000Y-72680000D03*
X47450000Y-72680000D03*
X44910000Y-72680000D03*
X32210000Y-72680000D03*
X34750000Y-72680000D03*
X37290000Y-72680000D03*
X39830000Y-72680000D03*
X42370000Y-72680000D03*
X62690000Y-72680000D03*
X65230000Y-72680000D03*
X67770000Y-72680000D03*
D13*
X28400000Y-68870000D03*
X27130000Y-68870000D03*
X27130000Y-57440000D03*
X28400000Y-33310000D03*
X27130000Y-33310000D03*
X29670000Y-33310000D03*
X30940000Y-33310000D03*
X32210000Y-33310000D03*
X33480000Y-33310000D03*
X34750000Y-33310000D03*
X36020000Y-33310000D03*
X37290000Y-33310000D03*
X38560000Y-33310000D03*
X42370000Y-33310000D03*
X43640000Y-33310000D03*
X44910000Y-33310000D03*
X46180000Y-33310000D03*
X47450000Y-33310000D03*
X48720000Y-33310000D03*
X49990000Y-33310000D03*
X51260000Y-33310000D03*
X52530000Y-33310000D03*
X56340000Y-33310000D03*
X58880000Y-33310000D03*
X60150000Y-33310000D03*
X66500000Y-33310000D03*
X67770000Y-33310000D03*
X70310000Y-33310000D03*
X39830000Y-33310000D03*
X71580000Y-33310000D03*
X69040000Y-33310000D03*
X65230000Y-33310000D03*
X63960000Y-33310000D03*
X62690000Y-33310000D03*
X61420000Y-33310000D03*
X57610000Y-33310000D03*
X55070000Y-33310000D03*
X53800000Y-33310000D03*
X71580000Y-32040000D03*
X70310000Y-32040000D03*
X69040000Y-32040000D03*
X67770000Y-32040000D03*
X66500000Y-32040000D03*
X65230000Y-32040000D03*
X63960000Y-32040000D03*
X62690000Y-32040000D03*
X41100000Y-33310000D03*
X61420000Y-32040000D03*
X60150000Y-32040000D03*
X58880000Y-32040000D03*
X57610000Y-32040000D03*
X56340000Y-32040000D03*
X55070000Y-32040000D03*
X53800000Y-32040000D03*
X52530000Y-32040000D03*
X51260000Y-32040000D03*
X49990000Y-32040000D03*
X48720000Y-32040000D03*
X47450000Y-32040000D03*
X46180000Y-32040000D03*
X44910000Y-32040000D03*
X43640000Y-32040000D03*
X42370000Y-32040000D03*
X41100000Y-32040000D03*
X39830000Y-32040000D03*
X37290000Y-32040000D03*
X38560000Y-32040000D03*
X36020000Y-32040000D03*
X34750000Y-32040000D03*
X33480000Y-32040000D03*
X32210000Y-32040000D03*
X30940000Y-32040000D03*
X29670000Y-32040000D03*
X28400000Y-32040000D03*
X27130000Y-32040000D03*
X30940000Y-70140000D03*
X38560000Y-70140000D03*
X39830000Y-70140000D03*
X41100000Y-70140000D03*
X42370000Y-70140000D03*
X43640000Y-70140000D03*
X52530000Y-70140000D03*
X65230000Y-70140000D03*
X69040000Y-70140000D03*
X70310000Y-70140000D03*
X71580000Y-70140000D03*
X27130000Y-70140000D03*
X67770000Y-70140000D03*
X66500000Y-70140000D03*
X63960000Y-70140000D03*
X62690000Y-70140000D03*
X61420000Y-70140000D03*
X60150000Y-70140000D03*
X58880000Y-70140000D03*
X57610000Y-70140000D03*
X56340000Y-70140000D03*
X55070000Y-70140000D03*
X53800000Y-70140000D03*
X51260000Y-70140000D03*
X49990000Y-70140000D03*
X48720000Y-70140000D03*
X47450000Y-70140000D03*
X46180000Y-70140000D03*
X44910000Y-70140000D03*
X37290000Y-70140000D03*
X36020000Y-70140000D03*
X34750000Y-70140000D03*
X33480000Y-70140000D03*
X32210000Y-70140000D03*
X29670000Y-70140000D03*
X28400000Y-70140000D03*
X33480000Y-68870000D03*
X49990000Y-68870000D03*
X51260000Y-68870000D03*
X60150000Y-68870000D03*
X61420000Y-68870000D03*
X65230000Y-68870000D03*
X69040000Y-68870000D03*
X71580000Y-68870000D03*
X70310000Y-68870000D03*
X67770000Y-68870000D03*
X66500000Y-68870000D03*
X63960000Y-68870000D03*
X47450000Y-68870000D03*
X46180000Y-68870000D03*
X44910000Y-68870000D03*
X43640000Y-68870000D03*
X42370000Y-68870000D03*
X39830000Y-68870000D03*
X38560000Y-68870000D03*
X37290000Y-68870000D03*
X36020000Y-68870000D03*
X34750000Y-68870000D03*
X32210000Y-68870000D03*
X62690000Y-68870000D03*
X58880000Y-68870000D03*
X57610000Y-68870000D03*
X56340000Y-68870000D03*
X55070000Y-68870000D03*
X53800000Y-68870000D03*
X52530000Y-68870000D03*
X30940000Y-68870000D03*
X29670000Y-68870000D03*
X41100000Y-68870000D03*
X48720000Y-68870000D03*
D14*
X27130000Y-54900000D03*
X28400000Y-54900000D03*
X29670000Y-54900000D03*
X29670000Y-47280000D03*
X28400000Y-47280000D03*
X27130000Y-47280000D03*
X46180000Y-54900000D03*
X47450000Y-54900000D03*
X48720000Y-54900000D03*
X48720000Y-47280000D03*
X47450000Y-47280000D03*
X46180000Y-47280000D03*
X42370000Y-54900000D03*
X43640000Y-54900000D03*
X44910000Y-54900000D03*
X44910000Y-47280000D03*
X43640000Y-47280000D03*
X42370000Y-47280000D03*
X49990000Y-54900000D03*
X51260000Y-54900000D03*
X52530000Y-54900000D03*
X52530000Y-47280000D03*
X51260000Y-47280000D03*
X49990000Y-47280000D03*
X30940000Y-54900000D03*
X32210000Y-54900000D03*
X33480000Y-54900000D03*
X33480000Y-47280000D03*
X32210000Y-47280000D03*
X30940000Y-47280000D03*
X53800000Y-54900000D03*
X55070000Y-54900000D03*
X56340000Y-54900000D03*
X56340000Y-47280000D03*
X55070000Y-47280000D03*
X53800000Y-47280000D03*
X57610000Y-54900000D03*
X58880000Y-54900000D03*
X60150000Y-54900000D03*
X60150000Y-47280000D03*
X58880000Y-47280000D03*
X57610000Y-47280000D03*
X38560000Y-54900000D03*
X39830000Y-54900000D03*
X41100000Y-54900000D03*
X41100000Y-47280000D03*
X39830000Y-47280000D03*
X38560000Y-47280000D03*
X61420000Y-54900000D03*
X62690000Y-54900000D03*
X63960000Y-54900000D03*
X63960000Y-47280000D03*
X62690000Y-47280000D03*
X61420000Y-47280000D03*
X65230000Y-54900000D03*
X66500000Y-54900000D03*
X67770000Y-54900000D03*
X67770000Y-47280000D03*
X66500000Y-47280000D03*
X65230000Y-47280000D03*
X34750000Y-54900000D03*
X36020000Y-54900000D03*
X37290000Y-54900000D03*
X37290000Y-47280000D03*
X36020000Y-47280000D03*
X34750000Y-47280000D03*
X69040000Y-54900000D03*
X70310000Y-54900000D03*
X71580000Y-54900000D03*
X71580000Y-47280000D03*
X70310000Y-47280000D03*
X69040000Y-47280000D03*
D15*
X28400000Y-72680000D03*
X71580000Y-72680000D03*
X28400000Y-28230000D03*
X71580000Y-28230000D03*
D13*
X27130000Y-58710000D03*
X28400000Y-57440000D03*
X29670000Y-57440000D03*
X28400000Y-58710000D03*
X29670000Y-58710000D03*
X30940000Y-57440000D03*
X30940000Y-58710000D03*
X27130000Y-59980000D03*
X27130000Y-61250000D03*
X27130000Y-62520000D03*
X27130000Y-63790000D03*
X27130000Y-65060000D03*
X27130000Y-66330000D03*
X27130000Y-67600000D03*
X28400000Y-59980000D03*
X28400000Y-61250000D03*
X28400000Y-62520000D03*
X28400000Y-63790000D03*
X28400000Y-65060000D03*
X28400000Y-66330000D03*
X28400000Y-67600000D03*
X29670000Y-67600000D03*
X29670000Y-66330000D03*
X29670000Y-65060000D03*
X29670000Y-63790000D03*
X29670000Y-62520000D03*
X29670000Y-59980000D03*
X29670000Y-61250000D03*
X30940000Y-59980000D03*
X30940000Y-61250000D03*
X30940000Y-67600000D03*
X30940000Y-66330000D03*
X30940000Y-65060000D03*
X30940000Y-62520000D03*
X30940000Y-63790000D03*
X32210000Y-57440000D03*
X32210000Y-58710000D03*
X32210000Y-59980000D03*
X32210000Y-61250000D03*
X32210000Y-62520000D03*
X32210000Y-63790000D03*
X32210000Y-65060000D03*
X32210000Y-66330000D03*
X32210000Y-67600000D03*
X33480000Y-67600000D03*
X34750000Y-67600000D03*
X33480000Y-66330000D03*
X34750000Y-65060000D03*
X34750000Y-66330000D03*
X39830000Y-61250000D03*
X37290000Y-62520000D03*
X38560000Y-62520000D03*
X34750000Y-58710000D03*
X37290000Y-58710000D03*
X34750000Y-59980000D03*
X33480000Y-62520000D03*
X37290000Y-61250000D03*
X37290000Y-59980000D03*
X34750000Y-57440000D03*
X33480000Y-57440000D03*
X33480000Y-58710000D03*
X33480000Y-59980000D03*
X33480000Y-61250000D03*
X36020000Y-63790000D03*
X36020000Y-61250000D03*
X33480000Y-65060000D03*
X33480000Y-63790000D03*
X34750000Y-63790000D03*
X34750000Y-62520000D03*
X34750000Y-61250000D03*
X36020000Y-62520000D03*
X36020000Y-57440000D03*
X36020000Y-58710000D03*
X36020000Y-59980000D03*
X37290000Y-57440000D03*
X38560000Y-57440000D03*
X38560000Y-58710000D03*
X38560000Y-59980000D03*
X36020000Y-65060000D03*
X36020000Y-66330000D03*
X36020000Y-67600000D03*
X37290000Y-63790000D03*
X38560000Y-63790000D03*
X38560000Y-65060000D03*
X37290000Y-65060000D03*
X38560000Y-66330000D03*
X37290000Y-66330000D03*
X38560000Y-67600000D03*
X37290000Y-67600000D03*
X39830000Y-67600000D03*
X39830000Y-66330000D03*
X39830000Y-62520000D03*
X39830000Y-63790000D03*
X39830000Y-65060000D03*
X39830000Y-57440000D03*
X39830000Y-58710000D03*
X39830000Y-59980000D03*
X41100000Y-67600000D03*
X41100000Y-66330000D03*
X41100000Y-65060000D03*
X41100000Y-63790000D03*
X41100000Y-62520000D03*
X41100000Y-61250000D03*
X41100000Y-57440000D03*
X41100000Y-58710000D03*
X41100000Y-59980000D03*
X42370000Y-57440000D03*
X42370000Y-58710000D03*
X42370000Y-59980000D03*
X42370000Y-61250000D03*
X42370000Y-62520000D03*
X42370000Y-63790000D03*
X42370000Y-65060000D03*
X42370000Y-66330000D03*
X42370000Y-67600000D03*
X43640000Y-67600000D03*
X43640000Y-66330000D03*
X43640000Y-65060000D03*
X43640000Y-63790000D03*
X43640000Y-62520000D03*
X43640000Y-61250000D03*
X43640000Y-59980000D03*
X43640000Y-58710000D03*
X43640000Y-57440000D03*
X44910000Y-57440000D03*
X44910000Y-58710000D03*
X44910000Y-59980000D03*
X44910000Y-61250000D03*
X44910000Y-62520000D03*
X44910000Y-63790000D03*
X44910000Y-65060000D03*
X44910000Y-66330000D03*
X44910000Y-67600000D03*
X46180000Y-67600000D03*
X46180000Y-66330000D03*
X46180000Y-65060000D03*
X46180000Y-63790000D03*
X46180000Y-62520000D03*
X46180000Y-61250000D03*
X46180000Y-59980000D03*
X46180000Y-58710000D03*
X46180000Y-57440000D03*
X47450000Y-66330000D03*
X47450000Y-67600000D03*
X47450000Y-65060000D03*
X48720000Y-63790000D03*
X47450000Y-62520000D03*
X38560000Y-61250000D03*
X47450000Y-61250000D03*
X47450000Y-59980000D03*
X47450000Y-58710000D03*
X47450000Y-57440000D03*
X48720000Y-67600000D03*
X49990000Y-67600000D03*
X48720000Y-66330000D03*
X49990000Y-66330000D03*
X48720000Y-65060000D03*
X49990000Y-65060000D03*
X47450000Y-63790000D03*
X49990000Y-63790000D03*
X48720000Y-62520000D03*
X49990000Y-62520000D03*
X48720000Y-61250000D03*
X49990000Y-61250000D03*
X48720000Y-59980000D03*
X49990000Y-59980000D03*
X48720000Y-58710000D03*
X49990000Y-58710000D03*
X48720000Y-57440000D03*
X49990000Y-57440000D03*
X51260000Y-67600000D03*
X51260000Y-66330000D03*
X52530000Y-67600000D03*
X51260000Y-65060000D03*
X52530000Y-66330000D03*
X51260000Y-63790000D03*
X53800000Y-67600000D03*
X71580000Y-67600000D03*
X71580000Y-57440000D03*
X71580000Y-58710000D03*
X70310000Y-57440000D03*
X70310000Y-58710000D03*
X69040000Y-57440000D03*
X69040000Y-58710000D03*
X67770000Y-57440000D03*
X67770000Y-58710000D03*
X66500000Y-57440000D03*
X66500000Y-58710000D03*
X71580000Y-59980000D03*
X65230000Y-62520000D03*
X71580000Y-62520000D03*
X71580000Y-63790000D03*
X72850000Y-34580000D03*
X71580000Y-65060000D03*
X71580000Y-66330000D03*
X70310000Y-61250000D03*
X70310000Y-63790000D03*
X69040000Y-62520000D03*
X69040000Y-63790000D03*
X69040000Y-59980000D03*
X69040000Y-61250000D03*
X72850000Y-38390000D03*
X67770000Y-59980000D03*
X67770000Y-61250000D03*
X66500000Y-59980000D03*
X66500000Y-61250000D03*
X66500000Y-62520000D03*
X67770000Y-62520000D03*
X66500000Y-63790000D03*
X67770000Y-63790000D03*
X72850000Y-49820000D03*
X72850000Y-46010000D03*
X72850000Y-42200000D03*
X70310000Y-65060000D03*
X69040000Y-65060000D03*
X70310000Y-66330000D03*
X69040000Y-66330000D03*
X70310000Y-67600000D03*
X69040000Y-67600000D03*
X67770000Y-65060000D03*
X66500000Y-65060000D03*
X65230000Y-57440000D03*
X65230000Y-58710000D03*
X65230000Y-59980000D03*
X63960000Y-59980000D03*
X65230000Y-61250000D03*
X63960000Y-61250000D03*
X71580000Y-61250000D03*
X63960000Y-62520000D03*
X63960000Y-58710000D03*
X63960000Y-57440000D03*
X65230000Y-63790000D03*
X63960000Y-63790000D03*
X72850000Y-57440000D03*
X72850000Y-53630000D03*
X67770000Y-66330000D03*
X67770000Y-67600000D03*
X66500000Y-66330000D03*
X66500000Y-67600000D03*
X65230000Y-65060000D03*
X63960000Y-65060000D03*
X65230000Y-67600000D03*
X65230000Y-66330000D03*
X63960000Y-67600000D03*
X63960000Y-66330000D03*
X62690000Y-57440000D03*
X62690000Y-58710000D03*
X61420000Y-57440000D03*
X61420000Y-58710000D03*
X60150000Y-57440000D03*
X58880000Y-57440000D03*
X57610000Y-57440000D03*
X56340000Y-57440000D03*
X55070000Y-57440000D03*
X52530000Y-57440000D03*
X51260000Y-57440000D03*
X53800000Y-57440000D03*
X51260000Y-58710000D03*
X51260000Y-59980000D03*
X51260000Y-61250000D03*
X52530000Y-58710000D03*
X52530000Y-59980000D03*
X53800000Y-58710000D03*
X55070000Y-58710000D03*
X53800000Y-59980000D03*
X52530000Y-61250000D03*
X56340000Y-58710000D03*
X60150000Y-58710000D03*
X58880000Y-58710000D03*
X57610000Y-58710000D03*
X55070000Y-59980000D03*
X53800000Y-61250000D03*
X51260000Y-62520000D03*
X52530000Y-62520000D03*
X52530000Y-63790000D03*
X52530000Y-65060000D03*
X53800000Y-62520000D03*
X53800000Y-63790000D03*
X53800000Y-65060000D03*
X53800000Y-66330000D03*
X56340000Y-59980000D03*
X55070000Y-61250000D03*
X57610000Y-59980000D03*
X58880000Y-59980000D03*
X61420000Y-59980000D03*
X62690000Y-59980000D03*
X60150000Y-59980000D03*
X62690000Y-61250000D03*
X61420000Y-61250000D03*
X60150000Y-61250000D03*
X58880000Y-61250000D03*
X56340000Y-61250000D03*
X57610000Y-61250000D03*
X62690000Y-62520000D03*
X61420000Y-62520000D03*
X58880000Y-62520000D03*
X60150000Y-62520000D03*
X70310000Y-59980000D03*
X55070000Y-62520000D03*
X56340000Y-62520000D03*
X57610000Y-62520000D03*
X55070000Y-63790000D03*
X56340000Y-63790000D03*
X57610000Y-63790000D03*
X60150000Y-63790000D03*
X58880000Y-63790000D03*
X61420000Y-63790000D03*
X62690000Y-63790000D03*
X70310000Y-62520000D03*
X72850000Y-61250000D03*
X55070000Y-67600000D03*
X55070000Y-66330000D03*
X55070000Y-65060000D03*
X56340000Y-65060000D03*
X57610000Y-67600000D03*
X56340000Y-67600000D03*
X56340000Y-66330000D03*
X58880000Y-66330000D03*
X57610000Y-66330000D03*
X57610000Y-65060000D03*
X72850000Y-70140000D03*
X72850000Y-68870000D03*
X72850000Y-65060000D03*
X62690000Y-65060000D03*
X62690000Y-67600000D03*
X62690000Y-66330000D03*
X58880000Y-65060000D03*
X61420000Y-65060000D03*
X60150000Y-65060000D03*
X61420000Y-66330000D03*
X60150000Y-67600000D03*
X60150000Y-66330000D03*
X61420000Y-67600000D03*
X58880000Y-67600000D03*
X27130000Y-34580000D03*
X28400000Y-34580000D03*
X29670000Y-34580000D03*
X30940000Y-34580000D03*
X32210000Y-34580000D03*
X33480000Y-34580000D03*
X34750000Y-34580000D03*
X36020000Y-34580000D03*
X37290000Y-34580000D03*
X38560000Y-34580000D03*
X39830000Y-34580000D03*
X41100000Y-34580000D03*
X42370000Y-34580000D03*
X43640000Y-34580000D03*
X44910000Y-34580000D03*
X46180000Y-34580000D03*
X47450000Y-34580000D03*
X48720000Y-34580000D03*
X38560000Y-35850000D03*
X37290000Y-35850000D03*
X36020000Y-35850000D03*
X34750000Y-35850000D03*
X33480000Y-35850000D03*
X32210000Y-35850000D03*
X30940000Y-35850000D03*
X28400000Y-35850000D03*
X29670000Y-35850000D03*
X27130000Y-35850000D03*
X27130000Y-37120000D03*
X27130000Y-38390000D03*
X27130000Y-39660000D03*
X28400000Y-37120000D03*
X27130000Y-44740000D03*
X27130000Y-42200000D03*
X27130000Y-40930000D03*
X27130000Y-43470000D03*
X29670000Y-37120000D03*
X30940000Y-37120000D03*
X32210000Y-37120000D03*
X33480000Y-37120000D03*
X34750000Y-37120000D03*
X36020000Y-37120000D03*
X28400000Y-38390000D03*
X29670000Y-38390000D03*
X32210000Y-38390000D03*
X30940000Y-38390000D03*
X33480000Y-38390000D03*
X28400000Y-39660000D03*
X28400000Y-44740000D03*
X28400000Y-42200000D03*
X28400000Y-40930000D03*
X29670000Y-43470000D03*
X28400000Y-43470000D03*
X29670000Y-39660000D03*
X29670000Y-40930000D03*
X29670000Y-42200000D03*
X29670000Y-44740000D03*
X30940000Y-39660000D03*
X30940000Y-40930000D03*
X30940000Y-42200000D03*
X32210000Y-39660000D03*
X33480000Y-39660000D03*
X30940000Y-44740000D03*
X30940000Y-43470000D03*
X32210000Y-44740000D03*
X32210000Y-43470000D03*
X32210000Y-40930000D03*
X32210000Y-42200000D03*
X34750000Y-44740000D03*
X33480000Y-44740000D03*
X33480000Y-43470000D03*
X33480000Y-42200000D03*
X33480000Y-40930000D03*
X34750000Y-38390000D03*
X34750000Y-39660000D03*
X34750000Y-40930000D03*
X34750000Y-42200000D03*
X34750000Y-43470000D03*
X37290000Y-37120000D03*
X52530000Y-34580000D03*
X51260000Y-34580000D03*
X49990000Y-34580000D03*
X49990000Y-35850000D03*
X47450000Y-35850000D03*
X48720000Y-35850000D03*
X46180000Y-35850000D03*
X44910000Y-35850000D03*
X41100000Y-35850000D03*
X38560000Y-38390000D03*
X39830000Y-39660000D03*
X42370000Y-38390000D03*
X46180000Y-39660000D03*
X38560000Y-42200000D03*
X42370000Y-42200000D03*
X44910000Y-43470000D03*
X46180000Y-42200000D03*
X39830000Y-35850000D03*
X43640000Y-35850000D03*
X42370000Y-35850000D03*
X38560000Y-37120000D03*
X39830000Y-37120000D03*
X43640000Y-37120000D03*
X36020000Y-44740000D03*
X36020000Y-38390000D03*
X41100000Y-37120000D03*
X42370000Y-37120000D03*
X36020000Y-40930000D03*
X37290000Y-44740000D03*
X52530000Y-44740000D03*
X51260000Y-44740000D03*
X49990000Y-44740000D03*
X48720000Y-44740000D03*
X47450000Y-44740000D03*
X46180000Y-44740000D03*
X44910000Y-44740000D03*
X43640000Y-44740000D03*
X42370000Y-44740000D03*
X41100000Y-44740000D03*
X39830000Y-44740000D03*
X38560000Y-44740000D03*
X36020000Y-43470000D03*
X52530000Y-43470000D03*
X51260000Y-43470000D03*
X49990000Y-43470000D03*
X48720000Y-42200000D03*
X48720000Y-43470000D03*
X47450000Y-43470000D03*
X46180000Y-43470000D03*
X44910000Y-42200000D03*
X47450000Y-42200000D03*
X43640000Y-43470000D03*
X42370000Y-43470000D03*
X41100000Y-43470000D03*
X39830000Y-43470000D03*
X38560000Y-43470000D03*
X37290000Y-43470000D03*
X37290000Y-42200000D03*
X36020000Y-42200000D03*
X39830000Y-42200000D03*
X41100000Y-42200000D03*
X43640000Y-42200000D03*
X37290000Y-40930000D03*
X38560000Y-40930000D03*
X39830000Y-40930000D03*
X41100000Y-40930000D03*
X42370000Y-40930000D03*
X43640000Y-40930000D03*
X36020000Y-39660000D03*
X37290000Y-39660000D03*
X37290000Y-38390000D03*
X38560000Y-39660000D03*
X39830000Y-38390000D03*
X41100000Y-39660000D03*
X41100000Y-38390000D03*
X42370000Y-39660000D03*
X43640000Y-39660000D03*
X43640000Y-38390000D03*
X44910000Y-37120000D03*
X44910000Y-38390000D03*
X44910000Y-39660000D03*
X44910000Y-40930000D03*
X46180000Y-40930000D03*
X46180000Y-37120000D03*
X47450000Y-37120000D03*
X49990000Y-37120000D03*
X48720000Y-37120000D03*
X46180000Y-38390000D03*
X47450000Y-38390000D03*
X47450000Y-39660000D03*
X47450000Y-40930000D03*
X48720000Y-40930000D03*
X49990000Y-42200000D03*
X48720000Y-39660000D03*
X48720000Y-38390000D03*
X49990000Y-38390000D03*
X49990000Y-39660000D03*
X49990000Y-40930000D03*
X51260000Y-42200000D03*
X51260000Y-35850000D03*
X52530000Y-35850000D03*
X51260000Y-37120000D03*
X52530000Y-37120000D03*
X51260000Y-40930000D03*
X51260000Y-39660000D03*
X51260000Y-38390000D03*
X52530000Y-38390000D03*
X52530000Y-39660000D03*
X52530000Y-40930000D03*
X52530000Y-42200000D03*
X53800000Y-44740000D03*
X53800000Y-43470000D03*
X53800000Y-42200000D03*
X53800000Y-34580000D03*
X53800000Y-35850000D03*
X53800000Y-37120000D03*
X53800000Y-38390000D03*
X53800000Y-40930000D03*
X53800000Y-39660000D03*
X55070000Y-44740000D03*
X56340000Y-44740000D03*
X57610000Y-44740000D03*
X58880000Y-44740000D03*
X60150000Y-44740000D03*
X61420000Y-44740000D03*
X55070000Y-43470000D03*
X55070000Y-34580000D03*
X55070000Y-35850000D03*
X55070000Y-37120000D03*
X55070000Y-38390000D03*
X55070000Y-39660000D03*
X55070000Y-40930000D03*
X55070000Y-42200000D03*
X56340000Y-34580000D03*
X56340000Y-35850000D03*
X56340000Y-37120000D03*
X56340000Y-38390000D03*
X56340000Y-39660000D03*
X56340000Y-40930000D03*
X57610000Y-42200000D03*
X56340000Y-42200000D03*
X56340000Y-43470000D03*
X57610000Y-43470000D03*
X57610000Y-40930000D03*
X57610000Y-39660000D03*
X57610000Y-38390000D03*
X57610000Y-37120000D03*
X57610000Y-34580000D03*
X57610000Y-35850000D03*
X58880000Y-34580000D03*
X58880000Y-35850000D03*
X58880000Y-37120000D03*
X58880000Y-39660000D03*
X58880000Y-38390000D03*
X58880000Y-40930000D03*
X58880000Y-42200000D03*
X58880000Y-43470000D03*
X60150000Y-43470000D03*
X60150000Y-42200000D03*
X60150000Y-40930000D03*
X60150000Y-38390000D03*
X60150000Y-39660000D03*
X72850000Y-67600000D03*
X72850000Y-66330000D03*
X60150000Y-37120000D03*
X60150000Y-35850000D03*
X60150000Y-34580000D03*
X61420000Y-34580000D03*
X61420000Y-35850000D03*
X61420000Y-37120000D03*
X72850000Y-62520000D03*
X72850000Y-63790000D03*
X61420000Y-38390000D03*
X61420000Y-40930000D03*
X61420000Y-39660000D03*
X61420000Y-43470000D03*
X61420000Y-42200000D03*
X62690000Y-44740000D03*
X62690000Y-43470000D03*
X62690000Y-42200000D03*
X62690000Y-40930000D03*
X63960000Y-39660000D03*
X62690000Y-38390000D03*
X72850000Y-59980000D03*
X72850000Y-58710000D03*
X62690000Y-37120000D03*
X62690000Y-34580000D03*
X62690000Y-35850000D03*
X63960000Y-34580000D03*
X65230000Y-34580000D03*
X66500000Y-34580000D03*
X67770000Y-34580000D03*
X69040000Y-34580000D03*
X71580000Y-34580000D03*
X70310000Y-34580000D03*
X71580000Y-35850000D03*
X70310000Y-35850000D03*
X69040000Y-35850000D03*
X67770000Y-35850000D03*
X66500000Y-35850000D03*
X63960000Y-35850000D03*
X65230000Y-35850000D03*
X71580000Y-37120000D03*
X70310000Y-37120000D03*
X69040000Y-37120000D03*
X67770000Y-37120000D03*
X63960000Y-37120000D03*
X65230000Y-37120000D03*
X66500000Y-37120000D03*
X72850000Y-54900000D03*
X72850000Y-32040000D03*
X72850000Y-35850000D03*
X72850000Y-43470000D03*
X72850000Y-39660000D03*
X72850000Y-51090000D03*
X72850000Y-47280000D03*
X63960000Y-44740000D03*
X71580000Y-44740000D03*
X70310000Y-44740000D03*
X69040000Y-44740000D03*
X67770000Y-44740000D03*
X66500000Y-44740000D03*
X65230000Y-44740000D03*
X72850000Y-56170000D03*
X63960000Y-38390000D03*
X62690000Y-39660000D03*
X63960000Y-40930000D03*
X63960000Y-42200000D03*
X63960000Y-43470000D03*
X65230000Y-43470000D03*
X65230000Y-42200000D03*
X72850000Y-52360000D03*
X72850000Y-48550000D03*
X72850000Y-44740000D03*
X65230000Y-38390000D03*
X65230000Y-39660000D03*
X65230000Y-40930000D03*
X66500000Y-38390000D03*
X66500000Y-39660000D03*
X66500000Y-40930000D03*
X66500000Y-42200000D03*
X66500000Y-43470000D03*
X67770000Y-43470000D03*
X67770000Y-42200000D03*
X67770000Y-40930000D03*
X72850000Y-40930000D03*
X72850000Y-33310000D03*
X72850000Y-37120000D03*
X67770000Y-38390000D03*
X67770000Y-39660000D03*
X69040000Y-38390000D03*
X70310000Y-38390000D03*
X71580000Y-38390000D03*
X69040000Y-39660000D03*
X69040000Y-40930000D03*
X70310000Y-39660000D03*
X70310000Y-40930000D03*
X71580000Y-39660000D03*
X71580000Y-40930000D03*
X69040000Y-42200000D03*
X69040000Y-43470000D03*
X70310000Y-42200000D03*
X71580000Y-42200000D03*
X71580000Y-43470000D03*
X70310000Y-43470000D03*
D12*
X32210000Y-29500000D03*
X34750000Y-29500000D03*
X37290000Y-29500000D03*
X39830000Y-29500000D03*
X42370000Y-29500000D03*
X47450000Y-29500000D03*
X44910000Y-29500000D03*
X52530000Y-29500000D03*
X49990000Y-29500000D03*
X67770000Y-29500000D03*
X65230000Y-29500000D03*
X62690000Y-29500000D03*
X60150000Y-29500000D03*
X57610000Y-29500000D03*
X55070000Y-29500000D03*
D16*
X29349960Y-49632040D02*
X29670000Y-49312000D01*
X29670000Y-49312000D02*
X29670000Y-47280000D01*
X29349960Y-49990180D02*
X29349960Y-49632040D01*
X27450040Y-49632040D02*
X27130000Y-49312000D01*
X27130000Y-49312000D02*
X27130000Y-47280000D01*
X27450040Y-49990180D02*
X27450040Y-49632040D01*
X28400000Y-52189820D02*
X28400000Y-54900000D01*
X33159960Y-52547960D02*
X33480000Y-52868000D01*
X33480000Y-52868000D02*
X33480000Y-54900000D01*
X33159960Y-52189820D02*
X33159960Y-52547960D01*
X32210000Y-49990180D02*
X32210000Y-47280000D01*
X32210000Y-52189820D02*
X32210000Y-54900000D01*
X33159960Y-49632040D02*
X33480000Y-49312000D01*
X33480000Y-49312000D02*
X33480000Y-47280000D01*
X33159960Y-49990180D02*
X33159960Y-49632040D01*
X31260040Y-49632040D02*
X30940000Y-49312000D01*
X30940000Y-49312000D02*
X30940000Y-47280000D01*
X31260040Y-49990180D02*
X31260040Y-49632040D01*
X27450040Y-52547960D02*
X27130000Y-52868000D01*
X27130000Y-52868000D02*
X27130000Y-54900000D01*
X27450040Y-52189820D02*
X27450040Y-52547960D01*
X29349960Y-52547960D02*
X29670000Y-52868000D01*
X29670000Y-52868000D02*
X29670000Y-54900000D01*
X29349960Y-52189820D02*
X29349960Y-52547960D01*
X28400000Y-49990180D02*
X28400000Y-47280000D01*
X69040000Y-70140000D02*
X67770000Y-70140000D01*
X70310000Y-70140000D02*
X69040000Y-70140000D01*
X71580000Y-70140000D02*
X70310000Y-70140000D01*
X63960000Y-70140000D02*
X62690000Y-70140000D01*
X65230000Y-70140000D02*
X63960000Y-70140000D01*
X66500000Y-70140000D02*
X65230000Y-70140000D01*
X67770000Y-70140000D02*
X66500000Y-70140000D01*
X28400000Y-70140000D02*
X27130000Y-70140000D01*
X29670000Y-70140000D02*
X28400000Y-70140000D01*
X30940000Y-70140000D02*
X29670000Y-70140000D01*
X32210000Y-70140000D02*
X30940000Y-70140000D01*
X33480000Y-70140000D02*
X32210000Y-70140000D01*
X34750000Y-70140000D02*
X33480000Y-70140000D01*
X36020000Y-70140000D02*
X34750000Y-70140000D01*
X37290000Y-70140000D02*
X36020000Y-70140000D01*
X38560000Y-70140000D02*
X37290000Y-70140000D01*
X39830000Y-70140000D02*
X38560000Y-70140000D01*
X41100000Y-70140000D02*
X39830000Y-70140000D01*
X42370000Y-70140000D02*
X41100000Y-70140000D01*
X43640000Y-70140000D02*
X42370000Y-70140000D01*
X44910000Y-70140000D02*
X43640000Y-70140000D01*
X46180000Y-70140000D02*
X44910000Y-70140000D01*
X47450000Y-70140000D02*
X46180000Y-70140000D01*
X48720000Y-70140000D02*
X47450000Y-70140000D01*
X49990000Y-70140000D02*
X48720000Y-70140000D01*
X51260000Y-70140000D02*
X49990000Y-70140000D01*
X52530000Y-70140000D02*
X51260000Y-70140000D01*
X53800000Y-70140000D02*
X52530000Y-70140000D01*
X55070000Y-70140000D02*
X53800000Y-70140000D01*
X56340000Y-70140000D02*
X55070000Y-70140000D01*
X57610000Y-70140000D02*
X56340000Y-70140000D01*
X58880000Y-70140000D02*
X57610000Y-70140000D01*
X60150000Y-70140000D02*
X58880000Y-70140000D01*
X61420000Y-70140000D02*
X60150000Y-70140000D01*
X62690000Y-70140000D02*
X61420000Y-70140000D01*
X53800000Y-33310000D02*
X52530000Y-33310000D01*
X55070000Y-33310000D02*
X53800000Y-33310000D01*
X56340000Y-33310000D02*
X55070000Y-33310000D01*
X57610000Y-33310000D02*
X56340000Y-33310000D01*
X58880000Y-33310000D02*
X57610000Y-33310000D01*
X60150000Y-33310000D02*
X58880000Y-33310000D01*
X61420000Y-33310000D02*
X60150000Y-33310000D01*
X62690000Y-33310000D02*
X61420000Y-33310000D01*
X63960000Y-33310000D02*
X62690000Y-33310000D01*
X65230000Y-33310000D02*
X63960000Y-33310000D01*
X66500000Y-33310000D02*
X65230000Y-33310000D01*
X67770000Y-33310000D02*
X66500000Y-33310000D01*
X69040000Y-33310000D02*
X67770000Y-33310000D01*
X70310000Y-33310000D02*
X69040000Y-33310000D01*
X28400000Y-33310000D02*
X27130000Y-33310000D01*
X29670000Y-33310000D02*
X28400000Y-33310000D01*
X30940000Y-33310000D02*
X29670000Y-33310000D01*
X32210000Y-33310000D02*
X30940000Y-33310000D01*
X33480000Y-33310000D02*
X32210000Y-33310000D01*
X34750000Y-33310000D02*
X33480000Y-33310000D01*
X36020000Y-33310000D02*
X34750000Y-33310000D01*
X37290000Y-33310000D02*
X36020000Y-33310000D01*
X38560000Y-33310000D02*
X37290000Y-33310000D01*
X39830000Y-33310000D02*
X38560000Y-33310000D01*
X41100000Y-33310000D02*
X39830000Y-33310000D01*
X42370000Y-33310000D02*
X41100000Y-33310000D01*
X43640000Y-33310000D02*
X42370000Y-33310000D01*
X44910000Y-33310000D02*
X43640000Y-33310000D01*
X46180000Y-33310000D02*
X44910000Y-33310000D01*
X47450000Y-33310000D02*
X46180000Y-33310000D01*
X48720000Y-33310000D02*
X47450000Y-33310000D01*
X49990000Y-33310000D02*
X48720000Y-33310000D01*
X51260000Y-33310000D02*
X49990000Y-33310000D01*
X52530000Y-33310000D02*
X51260000Y-33310000D01*
X71580000Y-33310000D02*
X70310000Y-33310000D01*
X29670000Y-32040000D02*
X30940000Y-32040000D01*
X28400000Y-32040000D02*
X29670000Y-32040000D01*
X27130000Y-32040000D02*
X28400000Y-32040000D01*
X53800000Y-32040000D02*
X55070000Y-32040000D01*
X52530000Y-32040000D02*
X53800000Y-32040000D01*
X51260000Y-32040000D02*
X52530000Y-32040000D01*
X49990000Y-32040000D02*
X51260000Y-32040000D01*
X48720000Y-32040000D02*
X49990000Y-32040000D01*
X47450000Y-32040000D02*
X48720000Y-32040000D01*
X46180000Y-32040000D02*
X47450000Y-32040000D01*
X44910000Y-32040000D02*
X46180000Y-32040000D01*
X43640000Y-32040000D02*
X44910000Y-32040000D01*
X42370000Y-32040000D02*
X43640000Y-32040000D01*
X41100000Y-32040000D02*
X42370000Y-32040000D01*
X39830000Y-32040000D02*
X41100000Y-32040000D01*
X38560000Y-32040000D02*
X39830000Y-32040000D01*
X37290000Y-32040000D02*
X38560000Y-32040000D01*
X36020000Y-32040000D02*
X37290000Y-32040000D01*
X34750000Y-32040000D02*
X36020000Y-32040000D01*
X33480000Y-32040000D02*
X34750000Y-32040000D01*
X32210000Y-32040000D02*
X33480000Y-32040000D01*
X30940000Y-32040000D02*
X32210000Y-32040000D01*
X70310000Y-32040000D02*
X71580000Y-32040000D01*
X69040000Y-32040000D02*
X70310000Y-32040000D01*
X67770000Y-32040000D02*
X69040000Y-32040000D01*
X66500000Y-32040000D02*
X67770000Y-32040000D01*
X65230000Y-32040000D02*
X66500000Y-32040000D01*
X63960000Y-32040000D02*
X65230000Y-32040000D01*
X62690000Y-32040000D02*
X63960000Y-32040000D01*
X61420000Y-32040000D02*
X62690000Y-32040000D01*
X60150000Y-32040000D02*
X61420000Y-32040000D01*
X58880000Y-32040000D02*
X60150000Y-32040000D01*
X57610000Y-32040000D02*
X58880000Y-32040000D01*
X56340000Y-32040000D02*
X57610000Y-32040000D01*
X55070000Y-32040000D02*
X56340000Y-32040000D01*
X51260000Y-52189820D02*
X51260000Y-54900000D01*
X52209960Y-49632040D02*
X52530000Y-49312000D01*
X52530000Y-49312000D02*
X52530000Y-47280000D01*
X52209960Y-49990180D02*
X52209960Y-49632040D01*
X50310040Y-49632040D02*
X49990000Y-49312000D01*
X50310040Y-49990180D02*
X50310040Y-49632040D01*
X49990000Y-49312000D02*
X49990000Y-47280000D01*
X46500040Y-52547960D02*
X46180000Y-52868000D01*
X46180000Y-52868000D02*
X46180000Y-54900000D01*
X46500040Y-52189820D02*
X46500040Y-52547960D01*
X48399960Y-52189820D02*
X48399960Y-52547960D01*
X48399960Y-52547960D02*
X48720000Y-52868000D01*
X48720000Y-52868000D02*
X48720000Y-54900000D01*
X48399960Y-49632040D02*
X48720000Y-49312000D01*
X48720000Y-49312000D02*
X48720000Y-47280000D01*
X48399960Y-49990180D02*
X48399960Y-49632040D01*
X47450000Y-49990180D02*
X47450000Y-47280000D01*
X46500040Y-49632040D02*
X46180000Y-49312000D01*
X46180000Y-49312000D02*
X46180000Y-47280000D01*
X46500040Y-49990180D02*
X46500040Y-49632040D01*
X54120040Y-52547960D02*
X53800000Y-52868000D01*
X53800000Y-52868000D02*
X53800000Y-54900000D01*
X54120040Y-52189820D02*
X54120040Y-52547960D01*
X56019960Y-52547960D02*
X56340000Y-52868000D01*
X56340000Y-52868000D02*
X56340000Y-54900000D01*
X56019960Y-52189820D02*
X56019960Y-52547960D01*
X55070000Y-49990180D02*
X55070000Y-47280000D01*
X55070000Y-52189820D02*
X55070000Y-54900000D01*
X56019960Y-49632040D02*
X56340000Y-49312000D01*
X56340000Y-49312000D02*
X56340000Y-47280000D01*
X56019960Y-49990180D02*
X56019960Y-49632040D01*
X54120040Y-49632040D02*
X53800000Y-49312000D01*
X53800000Y-49312000D02*
X53800000Y-47280000D01*
X54120040Y-49990180D02*
X54120040Y-49632040D01*
X50310040Y-52547960D02*
X49990000Y-52868000D01*
X50310040Y-52189820D02*
X50310040Y-52547960D01*
X49990000Y-52868000D02*
X49990000Y-54900000D01*
X52209960Y-52547960D02*
X52530000Y-52868000D01*
X52530000Y-52868000D02*
X52530000Y-54900000D01*
X52209960Y-52189820D02*
X52209960Y-52547960D01*
X51260000Y-49990180D02*
X51260000Y-47280000D01*
X36020000Y-49990180D02*
X36020000Y-47280000D01*
X39830000Y-52189820D02*
X39830000Y-54900000D01*
X40779960Y-49632040D02*
X41100000Y-49312000D01*
X41100000Y-49312000D02*
X41100000Y-47280000D01*
X40779960Y-49990180D02*
X40779960Y-49632040D01*
X38880040Y-49632040D02*
X38560000Y-49312000D01*
X38560000Y-49312000D02*
X38560000Y-47280000D01*
X38880040Y-49990180D02*
X38880040Y-49632040D01*
X35070040Y-52547960D02*
X34750000Y-52868000D01*
X34750000Y-52868000D02*
X34750000Y-54900000D01*
X35070040Y-52189820D02*
X35070040Y-52547960D01*
X36969960Y-52547960D02*
X37290000Y-52868000D01*
X37290000Y-52868000D02*
X37290000Y-54900000D01*
X36969960Y-52189820D02*
X36969960Y-52547960D01*
X36020000Y-52189820D02*
X36020000Y-54900000D01*
X36969960Y-49632040D02*
X37290000Y-49312000D01*
X37290000Y-49312000D02*
X37290000Y-47280000D01*
X36969960Y-49990180D02*
X36969960Y-49632040D01*
X35070040Y-49632040D02*
X34750000Y-49312000D01*
X34750000Y-49312000D02*
X34750000Y-47280000D01*
X35070040Y-49990180D02*
X35070040Y-49632040D01*
X31260040Y-52547960D02*
X30940000Y-52868000D01*
X30940000Y-52868000D02*
X30940000Y-54900000D01*
X31260040Y-52189820D02*
X31260040Y-52547960D01*
X44589960Y-52547960D02*
X44910000Y-52868000D01*
X44910000Y-52868000D02*
X44910000Y-54900000D01*
X44589960Y-52189820D02*
X44589960Y-52547960D01*
X44589960Y-49632040D02*
X44910000Y-49312000D01*
X44910000Y-49312000D02*
X44910000Y-47280000D01*
X44589960Y-49990180D02*
X44589960Y-49632040D01*
X43640000Y-49990180D02*
X43640000Y-47280000D01*
X43640000Y-52189820D02*
X43640000Y-54900000D01*
X57930040Y-49632040D02*
X57610000Y-49312000D01*
X57610000Y-49312000D02*
X57610000Y-47280000D01*
X57930040Y-49990180D02*
X57930040Y-49632040D01*
X42690040Y-49632040D02*
X42370000Y-49312000D01*
X42690040Y-49990180D02*
X42690040Y-49632040D01*
X42370000Y-49312000D02*
X42370000Y-47280000D01*
X38880040Y-52547960D02*
X38560000Y-52868000D01*
X38560000Y-52868000D02*
X38560000Y-54900000D01*
X38880040Y-52189820D02*
X38880040Y-52547960D01*
X40779960Y-52547960D02*
X41100000Y-52868000D01*
X41100000Y-52868000D02*
X41100000Y-54900000D01*
X40779960Y-52189820D02*
X40779960Y-52547960D01*
X27130000Y-68870000D02*
X28400000Y-68870000D01*
X28400000Y-68870000D02*
X29670000Y-68870000D01*
X29670000Y-68870000D02*
X30940000Y-68870000D01*
X30940000Y-68870000D02*
X32210000Y-68870000D01*
X32210000Y-68870000D02*
X33480000Y-68870000D01*
X33480000Y-68870000D02*
X34750000Y-68870000D01*
X34750000Y-68870000D02*
X36020000Y-68870000D01*
X36020000Y-68870000D02*
X37290000Y-68870000D01*
X37290000Y-68870000D02*
X38560000Y-68870000D01*
X38560000Y-68870000D02*
X39830000Y-68870000D01*
X39830000Y-68870000D02*
X41100000Y-68870000D01*
X41100000Y-68870000D02*
X42370000Y-68870000D01*
X42370000Y-68870000D02*
X43640000Y-68870000D01*
X43640000Y-68870000D02*
X44910000Y-68870000D01*
X44910000Y-68870000D02*
X46180000Y-68870000D01*
X46180000Y-68870000D02*
X47450000Y-68870000D01*
X47450000Y-68870000D02*
X48720000Y-68870000D01*
X48720000Y-68870000D02*
X49990000Y-68870000D01*
X49990000Y-68870000D02*
X51260000Y-68870000D01*
X51260000Y-68870000D02*
X52530000Y-68870000D01*
X52530000Y-68870000D02*
X53800000Y-68870000D01*
X53800000Y-68870000D02*
X55070000Y-68870000D01*
X55070000Y-68870000D02*
X56340000Y-68870000D01*
X56340000Y-68870000D02*
X57610000Y-68870000D01*
X57610000Y-68870000D02*
X58880000Y-68870000D01*
X58880000Y-68870000D02*
X60150000Y-68870000D01*
X60150000Y-68870000D02*
X61420000Y-68870000D01*
X61420000Y-68870000D02*
X62690000Y-68870000D01*
X62690000Y-68870000D02*
X63960000Y-68870000D01*
X63960000Y-68870000D02*
X65230000Y-68870000D01*
X65230000Y-68870000D02*
X66500000Y-68870000D01*
X66500000Y-68870000D02*
X67770000Y-68870000D01*
X67770000Y-68870000D02*
X69040000Y-68870000D01*
X69040000Y-68870000D02*
X70310000Y-68870000D01*
X70310000Y-68870000D02*
X71580000Y-68870000D01*
X71259960Y-52547960D02*
X71580000Y-52868000D01*
X71580000Y-52868000D02*
X71580000Y-54900000D01*
X71259960Y-52189820D02*
X71259960Y-52547960D01*
X70310000Y-49990180D02*
X70310000Y-47280000D01*
X70310000Y-54900000D02*
X70310000Y-52189820D01*
X71259960Y-49632040D02*
X71580000Y-49312000D01*
X71580000Y-49312000D02*
X71580000Y-47280000D01*
X71259960Y-49990180D02*
X71259960Y-49632040D01*
X59829960Y-52547960D02*
X60150000Y-52868000D01*
X60150000Y-52868000D02*
X60150000Y-54900000D01*
X59829960Y-52189820D02*
X59829960Y-52547960D01*
X62690000Y-52189820D02*
X62690000Y-54900000D01*
X63639960Y-49632040D02*
X63960000Y-49312000D01*
X63960000Y-49312000D02*
X63960000Y-47280000D01*
X63639960Y-49990180D02*
X63639960Y-49632040D01*
X61740040Y-49632040D02*
X61420000Y-49312000D01*
X61420000Y-49312000D02*
X61420000Y-47280000D01*
X61740040Y-49990180D02*
X61740040Y-49632040D01*
X57930040Y-52547960D02*
X57610000Y-52868000D01*
X57610000Y-52868000D02*
X57610000Y-54900000D01*
X57930040Y-52189820D02*
X57930040Y-52547960D01*
X62690000Y-49990180D02*
X62690000Y-47280000D01*
X58880000Y-49990180D02*
X58880000Y-47280000D01*
X58880000Y-52189820D02*
X58880000Y-54900000D01*
X59829960Y-49632040D02*
X60150000Y-49312000D01*
X60150000Y-49312000D02*
X60150000Y-47280000D01*
X59829960Y-49990180D02*
X59829960Y-49632040D01*
X69360040Y-49632040D02*
X69040000Y-49312000D01*
X69040000Y-49312000D02*
X69040000Y-47280000D01*
X69360040Y-49990180D02*
X69360040Y-49632040D01*
X65550040Y-52547960D02*
X65230000Y-52868000D01*
X65230000Y-52868000D02*
X65230000Y-54900000D01*
X65550040Y-52189820D02*
X65550040Y-52547960D01*
X67449960Y-52189820D02*
X67449960Y-52547960D01*
X67449960Y-52547960D02*
X67770000Y-52868000D01*
X67770000Y-52868000D02*
X67770000Y-54900000D01*
X67449960Y-49990180D02*
X67449960Y-49632040D01*
X67449960Y-49632040D02*
X67770000Y-49312000D01*
X67770000Y-49312000D02*
X67770000Y-47280000D01*
X65550040Y-49632040D02*
X65230000Y-49312000D01*
X65230000Y-49312000D02*
X65230000Y-47280000D01*
X65550040Y-49990180D02*
X65550040Y-49632040D01*
X61740040Y-52547960D02*
X61420000Y-52868000D01*
X61420000Y-52868000D02*
X61420000Y-54900000D01*
X61740040Y-52189820D02*
X61740040Y-52547960D01*
X63639960Y-52547960D02*
X63960000Y-52868000D01*
X63960000Y-52868000D02*
X63960000Y-54900000D01*
X63639960Y-52189820D02*
X63639960Y-52547960D01*
X47450000Y-52189820D02*
X47450000Y-54900000D01*
X42690040Y-52547960D02*
X42370000Y-52868000D01*
X42690040Y-52189820D02*
X42690040Y-52547960D01*
X42370000Y-52868000D02*
X42370000Y-54900000D01*
X39830000Y-49990180D02*
X39830000Y-47280000D01*
X66500000Y-52189820D02*
X66500000Y-54900000D01*
X66500000Y-49990180D02*
X66500000Y-47280000D01*
X69360040Y-52547960D02*
X69040000Y-52868000D01*
X69040000Y-52868000D02*
X69040000Y-54900000D01*
X69360040Y-52189820D02*
X69360040Y-52547960D01*
M02*
