M48
;DRILL file {KiCad 4.0.4-stable} date Saturday, October 22, 2016 'PMt' 11:23:09 PM
;FORMAT={-:-/ absolute / inch / decimal}
FMAT,2
INCH,TZ
T1C0.035
T2C0.079
%
G90
G05
M72
T1
X1.2681Y-1.0614
X1.2681Y-1.1614
X1.2681Y-2.8614
X1.3681Y-1.0614
X1.3681Y-1.1614
X1.3681Y-2.8614
X1.4681Y-1.0614
X1.4681Y-1.1614
X1.4681Y-2.8614
X1.5681Y-1.0614
X1.5681Y-1.1614
X1.5681Y-2.8614
X1.6681Y-1.0614
X1.6681Y-1.1614
X1.6681Y-2.8614
X1.7681Y-1.0614
X1.7681Y-1.1614
X1.7681Y-2.8614
X1.8681Y-1.0614
X1.8681Y-1.1614
X1.8681Y-2.8614
X1.9681Y-1.0614
X1.9681Y-1.1614
X1.9681Y-2.8614
X2.0681Y-1.0614
X2.0681Y-1.1614
X2.0681Y-2.8614
X2.1681Y-1.0614
X2.1681Y-1.1614
X2.1681Y-2.8614
X2.2681Y-1.0614
X2.2681Y-1.1614
X2.2681Y-2.8614
X2.3681Y-1.0614
X2.3681Y-1.1614
X2.3681Y-2.8614
X2.4681Y-1.0614
X2.4681Y-1.1614
X2.4681Y-2.8614
X2.5681Y-1.0614
X2.5681Y-1.1614
X2.5681Y-2.8614
X2.6681Y-1.0614
X2.6681Y-1.1614
X2.6681Y-2.8614
T2
X1.1181Y-1.1114
X1.1181Y-2.8614
X2.8181Y-1.1114
X2.8181Y-2.8614
T0
M30
