G04 #@! TF.FileFunction,Legend,Bot*
%FSLAX46Y46*%
G04 Gerber Fmt 4.6, Leading zero omitted, Abs format (unit mm)*
G04 Created by KiCad (PCBNEW 4.0.4-stable) date Saturday, October 22, 2016 'PMt' 11:23:18 PM*
%MOMM*%
%LPD*%
G01*
G04 APERTURE LIST*
%ADD10C,0.150000*%
%ADD11C,0.200000*%
%ADD12R,2.506980X2.506980*%
%ADD13R,1.508760X1.508760*%
%ADD14C,3.508000*%
G04 APERTURE END LIST*
D10*
D11*
X49707157Y-45998831D02*
X49990000Y-45715988D01*
X49990000Y-45715988D02*
X50272843Y-45998831D01*
X50272843Y-50524315D02*
X49990000Y-50241472D01*
X49990000Y-50241472D02*
X49707157Y-50524315D01*
X50272843Y-55049798D02*
X49990000Y-54766955D01*
X49990000Y-54766955D02*
X49707157Y-55049798D01*
X59606652Y-50807157D02*
X59889495Y-51090000D01*
X59889495Y-51090000D02*
X59606652Y-51372843D01*
X49707157Y-60706652D02*
X50272843Y-60706652D01*
X40373348Y-50807157D02*
X40090505Y-51090000D01*
X40090505Y-51090000D02*
X40373348Y-51372843D01*
X50272843Y-41473348D02*
X49990000Y-41190505D01*
X49990000Y-41190505D02*
X49707157Y-41473348D01*
%LPC*%
D12*
X32210000Y-26960000D03*
X34750000Y-26960000D03*
X37290000Y-26960000D03*
X39830000Y-26960000D03*
X42370000Y-26960000D03*
X44910000Y-26960000D03*
X47450000Y-26960000D03*
X49990000Y-26960000D03*
X52530000Y-26960000D03*
X55070000Y-26960000D03*
X57610000Y-26960000D03*
X60150000Y-26960000D03*
X62690000Y-26960000D03*
X65230000Y-26960000D03*
X67770000Y-26960000D03*
X57610000Y-72680000D03*
X60150000Y-72680000D03*
X55070000Y-72680000D03*
X52530000Y-72680000D03*
X49990000Y-72680000D03*
X47450000Y-72680000D03*
X44910000Y-72680000D03*
X32210000Y-72680000D03*
X34750000Y-72680000D03*
X37290000Y-72680000D03*
X39830000Y-72680000D03*
X42370000Y-72680000D03*
X62690000Y-72680000D03*
X65230000Y-72680000D03*
X67770000Y-72680000D03*
D13*
X48720000Y-62520000D03*
X47450000Y-62520000D03*
X46180000Y-62520000D03*
X44910000Y-62520000D03*
X43640000Y-62520000D03*
X42370000Y-62520000D03*
X41100000Y-62520000D03*
X39830000Y-62520000D03*
X38560000Y-61250000D03*
X38560000Y-59980000D03*
X38560000Y-58710000D03*
X38560000Y-57440000D03*
X38560000Y-56170000D03*
X38560000Y-54900000D03*
X38560000Y-53630000D03*
X38560000Y-52360000D03*
X38560000Y-49820000D03*
X38560000Y-48550000D03*
X38560000Y-47280000D03*
X38560000Y-46010000D03*
X38560000Y-44740000D03*
X38560000Y-43470000D03*
X38560000Y-42200000D03*
X38560000Y-40930000D03*
X39830000Y-39660000D03*
X41100000Y-39660000D03*
X42370000Y-39660000D03*
X43640000Y-39660000D03*
X44910000Y-39660000D03*
X46180000Y-39660000D03*
X47450000Y-39660000D03*
X48720000Y-39660000D03*
X51260000Y-39660000D03*
X52530000Y-39660000D03*
X53800000Y-39660000D03*
X55070000Y-39660000D03*
X56340000Y-39660000D03*
X57610000Y-39660000D03*
X58880000Y-39660000D03*
X60150000Y-39660000D03*
X61420000Y-40930000D03*
X61420000Y-42200000D03*
X61420000Y-43470000D03*
X61420000Y-44740000D03*
X61420000Y-46010000D03*
X61420000Y-47280000D03*
X61420000Y-48550000D03*
X61420000Y-49820000D03*
X61420000Y-52360000D03*
X61420000Y-53630000D03*
X61420000Y-54900000D03*
X61420000Y-56170000D03*
X61420000Y-57440000D03*
X61420000Y-58710000D03*
X61420000Y-59980000D03*
X61420000Y-61250000D03*
X60150000Y-62520000D03*
X58880000Y-62520000D03*
X57610000Y-62520000D03*
X56340000Y-62520000D03*
X55070000Y-62520000D03*
X53800000Y-62520000D03*
X52530000Y-62520000D03*
X51260000Y-62520000D03*
D10*
G36*
X49818880Y-60459165D02*
X48328299Y-61949746D01*
X47615536Y-61236983D01*
X49106117Y-59746402D01*
X49818880Y-60459165D01*
X49818880Y-60459165D01*
G37*
G36*
X49253194Y-59893479D02*
X47762613Y-61384060D01*
X47049850Y-60671297D01*
X48540431Y-59180716D01*
X49253194Y-59893479D01*
X49253194Y-59893479D01*
G37*
G36*
X48687509Y-59327794D02*
X47196928Y-60818375D01*
X46484165Y-60105612D01*
X47974746Y-58615031D01*
X48687509Y-59327794D01*
X48687509Y-59327794D01*
G37*
G36*
X48121824Y-58762108D02*
X46631243Y-60252689D01*
X45918480Y-59539926D01*
X47409061Y-58049345D01*
X48121824Y-58762108D01*
X48121824Y-58762108D01*
G37*
G36*
X47556138Y-58196423D02*
X46065557Y-59687004D01*
X45352794Y-58974241D01*
X46843375Y-57483660D01*
X47556138Y-58196423D01*
X47556138Y-58196423D01*
G37*
G36*
X46990453Y-57630737D02*
X45499872Y-59121318D01*
X44787109Y-58408555D01*
X46277690Y-56917974D01*
X46990453Y-57630737D01*
X46990453Y-57630737D01*
G37*
G36*
X46424767Y-57065052D02*
X44934186Y-58555633D01*
X44221423Y-57842870D01*
X45712004Y-56352289D01*
X46424767Y-57065052D01*
X46424767Y-57065052D01*
G37*
G36*
X45859082Y-56499367D02*
X44368501Y-57989948D01*
X43655738Y-57277185D01*
X45146319Y-55786604D01*
X45859082Y-56499367D01*
X45859082Y-56499367D01*
G37*
G36*
X45293396Y-55933681D02*
X43802815Y-57424262D01*
X43090052Y-56711499D01*
X44580633Y-55220918D01*
X45293396Y-55933681D01*
X45293396Y-55933681D01*
G37*
G36*
X44727711Y-55367996D02*
X43237130Y-56858577D01*
X42524367Y-56145814D01*
X44014948Y-54655233D01*
X44727711Y-55367996D01*
X44727711Y-55367996D01*
G37*
G36*
X44162026Y-54802310D02*
X42671445Y-56292891D01*
X41958682Y-55580128D01*
X43449263Y-54089547D01*
X44162026Y-54802310D01*
X44162026Y-54802310D01*
G37*
G36*
X43596340Y-54236625D02*
X42105759Y-55727206D01*
X41392996Y-55014443D01*
X42883577Y-53523862D01*
X43596340Y-54236625D01*
X43596340Y-54236625D01*
G37*
G36*
X43030655Y-53670939D02*
X41540074Y-55161520D01*
X40827311Y-54448757D01*
X42317892Y-52958176D01*
X43030655Y-53670939D01*
X43030655Y-53670939D01*
G37*
G36*
X42464969Y-53105254D02*
X40974388Y-54595835D01*
X40261625Y-53883072D01*
X41752206Y-52392491D01*
X42464969Y-53105254D01*
X42464969Y-53105254D01*
G37*
G36*
X41899284Y-52539569D02*
X40408703Y-54030150D01*
X39695940Y-53317387D01*
X41186521Y-51826806D01*
X41899284Y-52539569D01*
X41899284Y-52539569D01*
G37*
G36*
X41333598Y-51973883D02*
X39843017Y-53464464D01*
X39130254Y-52751701D01*
X40620835Y-51261120D01*
X41333598Y-51973883D01*
X41333598Y-51973883D01*
G37*
G36*
X47409060Y-57707105D02*
X39130254Y-49428299D01*
X39843018Y-48715535D01*
X48121824Y-56994341D01*
X47409060Y-57707105D01*
X47409060Y-57707105D01*
G37*
G36*
X47974745Y-57141420D02*
X39695939Y-48862614D01*
X40408703Y-48149850D01*
X48687509Y-56428656D01*
X47974745Y-57141420D01*
X47974745Y-57141420D01*
G37*
G36*
X48540431Y-56575734D02*
X40261625Y-48296928D01*
X40974389Y-47584164D01*
X49253195Y-55862970D01*
X48540431Y-56575734D01*
X48540431Y-56575734D01*
G37*
G36*
X49106116Y-56010049D02*
X40827310Y-47731243D01*
X41540074Y-47018479D01*
X49818880Y-55297285D01*
X49106116Y-56010049D01*
X49106116Y-56010049D01*
G37*
G36*
X49106117Y-54878678D02*
X41392996Y-47165557D01*
X42105759Y-46452794D01*
X49818880Y-54165915D01*
X49106117Y-54878678D01*
X49106117Y-54878678D01*
G37*
G36*
X49106117Y-53747307D02*
X41958682Y-46599872D01*
X42671445Y-45887109D01*
X49818880Y-53034544D01*
X49106117Y-53747307D01*
X49106117Y-53747307D01*
G37*
G36*
X49106116Y-52615937D02*
X42524366Y-46034187D01*
X43237130Y-45321423D01*
X49818880Y-51903173D01*
X49106116Y-52615937D01*
X49106116Y-52615937D01*
G37*
G36*
X49106116Y-51484566D02*
X43090052Y-45468502D01*
X43802816Y-44755738D01*
X49818880Y-50771802D01*
X49106116Y-51484566D01*
X49106116Y-51484566D01*
G37*
G36*
X49106117Y-50353194D02*
X43655738Y-44902815D01*
X44368501Y-44190052D01*
X49818880Y-49640431D01*
X49106117Y-50353194D01*
X49106117Y-50353194D01*
G37*
G36*
X49106117Y-49221824D02*
X44221423Y-44337130D01*
X44934187Y-43624366D01*
X49818881Y-48509060D01*
X49106117Y-49221824D01*
X49106117Y-49221824D01*
G37*
G36*
X49106116Y-48090453D02*
X44787108Y-43771445D01*
X45499872Y-43058681D01*
X49818880Y-47377689D01*
X49106116Y-48090453D01*
X49106116Y-48090453D01*
G37*
G36*
X49106117Y-46959082D02*
X45352794Y-43205759D01*
X46065557Y-42492996D01*
X49818880Y-46246319D01*
X49106117Y-46959082D01*
X49106117Y-46959082D01*
G37*
G36*
X49106117Y-45827712D02*
X45918479Y-42640074D01*
X46631243Y-41927310D01*
X49818881Y-45114948D01*
X49106117Y-45827712D01*
X49106117Y-45827712D01*
G37*
G36*
X49106116Y-44696341D02*
X46484164Y-42074389D01*
X47196928Y-41361625D01*
X49818880Y-43983577D01*
X49106116Y-44696341D01*
X49106116Y-44696341D01*
G37*
G36*
X49106116Y-43564970D02*
X47049850Y-41508704D01*
X47762614Y-40795940D01*
X49818880Y-42852206D01*
X49106116Y-43564970D01*
X49106116Y-43564970D01*
G37*
G36*
X49106117Y-42433598D02*
X47615536Y-40943017D01*
X48328299Y-40230254D01*
X49818880Y-41720835D01*
X49106117Y-42433598D01*
X49106117Y-42433598D01*
G37*
G36*
X52364464Y-40943017D02*
X50873883Y-42433598D01*
X50161120Y-41720835D01*
X51651701Y-40230254D01*
X52364464Y-40943017D01*
X52364464Y-40943017D01*
G37*
G36*
X52930150Y-41508704D02*
X50873884Y-43564970D01*
X50161120Y-42852206D01*
X52217386Y-40795940D01*
X52930150Y-41508704D01*
X52930150Y-41508704D01*
G37*
G36*
X53495836Y-42074389D02*
X50873884Y-44696341D01*
X50161120Y-43983577D01*
X52783072Y-41361625D01*
X53495836Y-42074389D01*
X53495836Y-42074389D01*
G37*
G36*
X54061521Y-42640074D02*
X50873883Y-45827712D01*
X50161119Y-45114948D01*
X53348757Y-41927310D01*
X54061521Y-42640074D01*
X54061521Y-42640074D01*
G37*
G36*
X54627206Y-43205759D02*
X50873883Y-46959082D01*
X50161120Y-46246319D01*
X53914443Y-42492996D01*
X54627206Y-43205759D01*
X54627206Y-43205759D01*
G37*
G36*
X55192892Y-43771445D02*
X50873884Y-48090453D01*
X50161120Y-47377689D01*
X54480128Y-43058681D01*
X55192892Y-43771445D01*
X55192892Y-43771445D01*
G37*
G36*
X55758577Y-44337130D02*
X50873883Y-49221824D01*
X50161119Y-48509060D01*
X55045813Y-43624366D01*
X55758577Y-44337130D01*
X55758577Y-44337130D01*
G37*
G36*
X56324262Y-44902815D02*
X50873883Y-50353194D01*
X50161120Y-49640431D01*
X55611499Y-44190052D01*
X56324262Y-44902815D01*
X56324262Y-44902815D01*
G37*
G36*
X56889948Y-45468502D02*
X50873884Y-51484566D01*
X50161120Y-50771802D01*
X56177184Y-44755738D01*
X56889948Y-45468502D01*
X56889948Y-45468502D01*
G37*
G36*
X57455634Y-46034187D02*
X50873884Y-52615937D01*
X50161120Y-51903173D01*
X56742870Y-45321423D01*
X57455634Y-46034187D01*
X57455634Y-46034187D01*
G37*
G36*
X58021318Y-46599872D02*
X50873883Y-53747307D01*
X50161120Y-53034544D01*
X57308555Y-45887109D01*
X58021318Y-46599872D01*
X58021318Y-46599872D01*
G37*
G36*
X58587004Y-47165557D02*
X50873883Y-54878678D01*
X50161120Y-54165915D01*
X57874241Y-46452794D01*
X58587004Y-47165557D01*
X58587004Y-47165557D01*
G37*
G36*
X59152690Y-47731243D02*
X50873884Y-56010049D01*
X50161120Y-55297285D01*
X58439926Y-47018479D01*
X59152690Y-47731243D01*
X59152690Y-47731243D01*
G37*
G36*
X59718375Y-48296928D02*
X51439569Y-56575734D01*
X50726805Y-55862970D01*
X59005611Y-47584164D01*
X59718375Y-48296928D01*
X59718375Y-48296928D01*
G37*
G36*
X60284061Y-48862614D02*
X52005255Y-57141420D01*
X51292491Y-56428656D01*
X59571297Y-48149850D01*
X60284061Y-48862614D01*
X60284061Y-48862614D01*
G37*
G36*
X60849746Y-49428299D02*
X52570940Y-57707105D01*
X51858176Y-56994341D01*
X60136982Y-48715535D01*
X60849746Y-49428299D01*
X60849746Y-49428299D01*
G37*
G36*
X59359165Y-51261120D02*
X60849746Y-52751701D01*
X60136983Y-53464464D01*
X58646402Y-51973883D01*
X59359165Y-51261120D01*
X59359165Y-51261120D01*
G37*
G36*
X58793479Y-51826806D02*
X60284060Y-53317387D01*
X59571297Y-54030150D01*
X58080716Y-52539569D01*
X58793479Y-51826806D01*
X58793479Y-51826806D01*
G37*
G36*
X58227794Y-52392491D02*
X59718375Y-53883072D01*
X59005612Y-54595835D01*
X57515031Y-53105254D01*
X58227794Y-52392491D01*
X58227794Y-52392491D01*
G37*
G36*
X57662108Y-52958176D02*
X59152689Y-54448757D01*
X58439926Y-55161520D01*
X56949345Y-53670939D01*
X57662108Y-52958176D01*
X57662108Y-52958176D01*
G37*
G36*
X57096423Y-53523862D02*
X58587004Y-55014443D01*
X57874241Y-55727206D01*
X56383660Y-54236625D01*
X57096423Y-53523862D01*
X57096423Y-53523862D01*
G37*
G36*
X56530737Y-54089547D02*
X58021318Y-55580128D01*
X57308555Y-56292891D01*
X55817974Y-54802310D01*
X56530737Y-54089547D01*
X56530737Y-54089547D01*
G37*
G36*
X55965052Y-54655233D02*
X57455633Y-56145814D01*
X56742870Y-56858577D01*
X55252289Y-55367996D01*
X55965052Y-54655233D01*
X55965052Y-54655233D01*
G37*
G36*
X55399367Y-55220918D02*
X56889948Y-56711499D01*
X56177185Y-57424262D01*
X54686604Y-55933681D01*
X55399367Y-55220918D01*
X55399367Y-55220918D01*
G37*
G36*
X54833681Y-55786604D02*
X56324262Y-57277185D01*
X55611499Y-57989948D01*
X54120918Y-56499367D01*
X54833681Y-55786604D01*
X54833681Y-55786604D01*
G37*
G36*
X54267996Y-56352289D02*
X55758577Y-57842870D01*
X55045814Y-58555633D01*
X53555233Y-57065052D01*
X54267996Y-56352289D01*
X54267996Y-56352289D01*
G37*
G36*
X53702310Y-56917974D02*
X55192891Y-58408555D01*
X54480128Y-59121318D01*
X52989547Y-57630737D01*
X53702310Y-56917974D01*
X53702310Y-56917974D01*
G37*
G36*
X53136625Y-57483660D02*
X54627206Y-58974241D01*
X53914443Y-59687004D01*
X52423862Y-58196423D01*
X53136625Y-57483660D01*
X53136625Y-57483660D01*
G37*
G36*
X52570939Y-58049345D02*
X54061520Y-59539926D01*
X53348757Y-60252689D01*
X51858176Y-58762108D01*
X52570939Y-58049345D01*
X52570939Y-58049345D01*
G37*
G36*
X52005254Y-58615031D02*
X53495835Y-60105612D01*
X52783072Y-60818375D01*
X51292491Y-59327794D01*
X52005254Y-58615031D01*
X52005254Y-58615031D01*
G37*
G36*
X51439569Y-59180716D02*
X52930150Y-60671297D01*
X52217387Y-61384060D01*
X50726806Y-59893479D01*
X51439569Y-59180716D01*
X51439569Y-59180716D01*
G37*
G36*
X50873883Y-59746402D02*
X52364464Y-61236983D01*
X51651701Y-61949746D01*
X50161120Y-60459165D01*
X50873883Y-59746402D01*
X50873883Y-59746402D01*
G37*
D14*
X28400000Y-72680000D03*
X71580000Y-72680000D03*
X28400000Y-28230000D03*
X71580000Y-28230000D03*
D13*
X27130000Y-33310000D03*
X27130000Y-32040000D03*
X29670000Y-33310000D03*
X28400000Y-33310000D03*
X28400000Y-32040000D03*
X32210000Y-33310000D03*
X30940000Y-33310000D03*
X33480000Y-33310000D03*
X30940000Y-32040000D03*
X29670000Y-32040000D03*
X33480000Y-32040000D03*
X32210000Y-32040000D03*
X34750000Y-33310000D03*
X34750000Y-32040000D03*
X36020000Y-33310000D03*
X38560000Y-33310000D03*
X39830000Y-33310000D03*
X39830000Y-32040000D03*
X38560000Y-32040000D03*
X43640000Y-33310000D03*
X43640000Y-32040000D03*
X47450000Y-32040000D03*
X42370000Y-33310000D03*
X41100000Y-33310000D03*
X37290000Y-33310000D03*
X41100000Y-32040000D03*
X42370000Y-32040000D03*
X36020000Y-32040000D03*
X37290000Y-32040000D03*
X44910000Y-33310000D03*
X44910000Y-32040000D03*
X46180000Y-33310000D03*
X47450000Y-33310000D03*
X46180000Y-32040000D03*
X49990000Y-33310000D03*
X48720000Y-33310000D03*
X48720000Y-32040000D03*
X49990000Y-32040000D03*
X51260000Y-32040000D03*
X51260000Y-33310000D03*
X52530000Y-33310000D03*
X52530000Y-32040000D03*
X53800000Y-33310000D03*
X53800000Y-32040000D03*
X55070000Y-33310000D03*
X55070000Y-32040000D03*
X56340000Y-33310000D03*
X56340000Y-32040000D03*
X57610000Y-32040000D03*
X57610000Y-33310000D03*
X58880000Y-33310000D03*
X58880000Y-32040000D03*
X60150000Y-32040000D03*
X60150000Y-33310000D03*
X61420000Y-33310000D03*
X61420000Y-32040000D03*
X62690000Y-32040000D03*
X62690000Y-33310000D03*
X71580000Y-33310000D03*
X63960000Y-33310000D03*
X65230000Y-33310000D03*
X69040000Y-33310000D03*
X70310000Y-33310000D03*
X67770000Y-33310000D03*
X66500000Y-33310000D03*
X71580000Y-32040000D03*
X70310000Y-32040000D03*
X69040000Y-32040000D03*
X67770000Y-32040000D03*
X66500000Y-32040000D03*
X63960000Y-32040000D03*
X65230000Y-32040000D03*
X62690000Y-49820000D03*
X62690000Y-48550000D03*
X61420000Y-51090000D03*
X62690000Y-47280000D03*
X61420000Y-39660000D03*
X62690000Y-39660000D03*
X62690000Y-40930000D03*
X62690000Y-42200000D03*
X62690000Y-43470000D03*
X62690000Y-44740000D03*
X62690000Y-46010000D03*
D12*
X32210000Y-29500000D03*
X34750000Y-29500000D03*
X37290000Y-29500000D03*
X39830000Y-29500000D03*
X42370000Y-29500000D03*
X47450000Y-29500000D03*
X44910000Y-29500000D03*
X52530000Y-29500000D03*
X49990000Y-29500000D03*
X67770000Y-29500000D03*
X65230000Y-29500000D03*
X62690000Y-29500000D03*
X60150000Y-29500000D03*
X57610000Y-29500000D03*
X55070000Y-29500000D03*
D13*
X71580000Y-34580000D03*
X70310000Y-34580000D03*
X69040000Y-34580000D03*
X67770000Y-34580000D03*
X63960000Y-37120000D03*
X63960000Y-38390000D03*
X62690000Y-34580000D03*
X62690000Y-35850000D03*
X62690000Y-37120000D03*
X61420000Y-34580000D03*
X69040000Y-37120000D03*
X66500000Y-34580000D03*
X65230000Y-34580000D03*
X63960000Y-34580000D03*
X71580000Y-35850000D03*
X70310000Y-35850000D03*
X69040000Y-35850000D03*
X67770000Y-35850000D03*
X66500000Y-35850000D03*
X65230000Y-35850000D03*
X63960000Y-35850000D03*
X71580000Y-37120000D03*
X70310000Y-37120000D03*
X61420000Y-35850000D03*
X67770000Y-37120000D03*
X66500000Y-37120000D03*
X65230000Y-37120000D03*
X72850000Y-39660000D03*
X72850000Y-32040000D03*
X72850000Y-33310000D03*
X72850000Y-35850000D03*
X61420000Y-37120000D03*
X72850000Y-43470000D03*
X72850000Y-47280000D03*
X72850000Y-51090000D03*
X72850000Y-54900000D03*
X72850000Y-37120000D03*
X72850000Y-40930000D03*
X72850000Y-44740000D03*
X72850000Y-48550000D03*
X72850000Y-52360000D03*
X72850000Y-56170000D03*
X71580000Y-38390000D03*
X70310000Y-38390000D03*
X69040000Y-38390000D03*
X67770000Y-38390000D03*
X66500000Y-38390000D03*
X65230000Y-38390000D03*
X72850000Y-58710000D03*
X72850000Y-59980000D03*
X62690000Y-38390000D03*
X72850000Y-62520000D03*
X72850000Y-63790000D03*
X61420000Y-38390000D03*
X71580000Y-39660000D03*
X70310000Y-39660000D03*
X69040000Y-40930000D03*
X67770000Y-39660000D03*
X66500000Y-39660000D03*
X65230000Y-39660000D03*
X63960000Y-39660000D03*
X71580000Y-40930000D03*
X70310000Y-40930000D03*
X69040000Y-39660000D03*
X67770000Y-40930000D03*
X66500000Y-40930000D03*
X65230000Y-40930000D03*
X63960000Y-40930000D03*
X71580000Y-42200000D03*
X63960000Y-42200000D03*
X70310000Y-42200000D03*
X65230000Y-42200000D03*
X69040000Y-42200000D03*
X67770000Y-42200000D03*
X66500000Y-42200000D03*
X71580000Y-43470000D03*
X70310000Y-43470000D03*
X69040000Y-43470000D03*
X67770000Y-43470000D03*
X66500000Y-43470000D03*
X65230000Y-43470000D03*
X63960000Y-43470000D03*
X71580000Y-44740000D03*
X70310000Y-44740000D03*
X69040000Y-44740000D03*
X67770000Y-44740000D03*
X66500000Y-44740000D03*
X65230000Y-44740000D03*
X63960000Y-44740000D03*
X60150000Y-34580000D03*
X58880000Y-34580000D03*
X57610000Y-34580000D03*
X60150000Y-35850000D03*
X58880000Y-35850000D03*
X58880000Y-37120000D03*
X60150000Y-37120000D03*
X72850000Y-66330000D03*
X60150000Y-38390000D03*
X72850000Y-67600000D03*
X58880000Y-38390000D03*
X71580000Y-46010000D03*
X70310000Y-46010000D03*
X69040000Y-46010000D03*
X67770000Y-46010000D03*
X65230000Y-46010000D03*
X66500000Y-46010000D03*
X63960000Y-46010000D03*
X71580000Y-47280000D03*
X70310000Y-47280000D03*
X69040000Y-47280000D03*
X67770000Y-47280000D03*
X66500000Y-47280000D03*
X65230000Y-47280000D03*
X63960000Y-47280000D03*
X71580000Y-48550000D03*
X71580000Y-49820000D03*
X71580000Y-51090000D03*
X70310000Y-48550000D03*
X69040000Y-48550000D03*
X70310000Y-49820000D03*
X67770000Y-48550000D03*
X66500000Y-48550000D03*
X67770000Y-49820000D03*
X65230000Y-48550000D03*
X63960000Y-48550000D03*
X69040000Y-49820000D03*
X63960000Y-49820000D03*
X66500000Y-49820000D03*
X65230000Y-49820000D03*
X70310000Y-51090000D03*
X69040000Y-51090000D03*
X67770000Y-51090000D03*
X66500000Y-51090000D03*
X63960000Y-51090000D03*
X65230000Y-51090000D03*
X62690000Y-51090000D03*
X62690000Y-52360000D03*
X71580000Y-52360000D03*
X70310000Y-52360000D03*
X69040000Y-52360000D03*
X67770000Y-52360000D03*
X66500000Y-52360000D03*
X65230000Y-52360000D03*
X63960000Y-52360000D03*
X71580000Y-53630000D03*
X71580000Y-54900000D03*
X70310000Y-53630000D03*
X69040000Y-53630000D03*
X67770000Y-53630000D03*
X66500000Y-53630000D03*
X65230000Y-53630000D03*
X62690000Y-53630000D03*
X63960000Y-53630000D03*
X62690000Y-54900000D03*
X63960000Y-54900000D03*
X65230000Y-54900000D03*
X66500000Y-54900000D03*
X67770000Y-54900000D03*
X69040000Y-54900000D03*
X70310000Y-54900000D03*
X67770000Y-56170000D03*
X63960000Y-56170000D03*
X69040000Y-57440000D03*
X69040000Y-58710000D03*
X67770000Y-57440000D03*
X67770000Y-58710000D03*
X66500000Y-57440000D03*
X71580000Y-56170000D03*
X70310000Y-56170000D03*
X69040000Y-56170000D03*
X62690000Y-57440000D03*
X66500000Y-56170000D03*
X65230000Y-56170000D03*
X63960000Y-57440000D03*
X62690000Y-56170000D03*
X71580000Y-57440000D03*
X71580000Y-58710000D03*
X70310000Y-57440000D03*
X70310000Y-58710000D03*
X65230000Y-57440000D03*
X66500000Y-58710000D03*
X71580000Y-59980000D03*
X71580000Y-61250000D03*
X71580000Y-62520000D03*
X71580000Y-63790000D03*
X72850000Y-34580000D03*
X71580000Y-65060000D03*
X71580000Y-66330000D03*
X71580000Y-68870000D03*
X71580000Y-67600000D03*
X71580000Y-70140000D03*
X70310000Y-59980000D03*
X70310000Y-61250000D03*
X70310000Y-62520000D03*
X70310000Y-63790000D03*
X69040000Y-59980000D03*
X65230000Y-58710000D03*
X63960000Y-58710000D03*
X62690000Y-58710000D03*
X67770000Y-59980000D03*
X66500000Y-59980000D03*
X65230000Y-59980000D03*
X62690000Y-59980000D03*
X63960000Y-59980000D03*
X62690000Y-61250000D03*
X61420000Y-62520000D03*
X62690000Y-62520000D03*
X69040000Y-61250000D03*
X67770000Y-61250000D03*
X66500000Y-61250000D03*
X65230000Y-61250000D03*
X63960000Y-61250000D03*
X69040000Y-62520000D03*
X72850000Y-38390000D03*
X70310000Y-65060000D03*
X70310000Y-66330000D03*
X70310000Y-67600000D03*
X70310000Y-68870000D03*
X70310000Y-70140000D03*
X67770000Y-62520000D03*
X66500000Y-62520000D03*
X63960000Y-62520000D03*
X65230000Y-62520000D03*
X69040000Y-63790000D03*
X72850000Y-42200000D03*
X69040000Y-65060000D03*
X69040000Y-66330000D03*
X69040000Y-67600000D03*
X69040000Y-68870000D03*
X69040000Y-70140000D03*
X67770000Y-63790000D03*
X72850000Y-46010000D03*
X67770000Y-65060000D03*
X67770000Y-66330000D03*
X67770000Y-67600000D03*
X66500000Y-63790000D03*
X65230000Y-63790000D03*
X63960000Y-63790000D03*
X72850000Y-49820000D03*
X67770000Y-68870000D03*
X49990000Y-62520000D03*
X66500000Y-65060000D03*
X72850000Y-53630000D03*
X62690000Y-63790000D03*
X67770000Y-70140000D03*
X66500000Y-70140000D03*
X66500000Y-66330000D03*
X66500000Y-67600000D03*
X66500000Y-68870000D03*
X65230000Y-65060000D03*
X65230000Y-66330000D03*
X65230000Y-67600000D03*
X65230000Y-68870000D03*
X65230000Y-70140000D03*
X72850000Y-57440000D03*
X63960000Y-65060000D03*
X63960000Y-66330000D03*
X63960000Y-67600000D03*
X63960000Y-68870000D03*
X63960000Y-70140000D03*
X72850000Y-61250000D03*
X62690000Y-65060000D03*
X62690000Y-66330000D03*
X62690000Y-67600000D03*
X62690000Y-68870000D03*
X62690000Y-70140000D03*
X61420000Y-63790000D03*
X72850000Y-65060000D03*
X60150000Y-63790000D03*
X61420000Y-65060000D03*
X61420000Y-66330000D03*
X61420000Y-67600000D03*
X61420000Y-68870000D03*
X61420000Y-70140000D03*
X72850000Y-68870000D03*
X60150000Y-65060000D03*
X60150000Y-66330000D03*
X60150000Y-67600000D03*
X60150000Y-68870000D03*
X60150000Y-70140000D03*
X58880000Y-63790000D03*
X72850000Y-70140000D03*
X58880000Y-65060000D03*
X58880000Y-66330000D03*
X58880000Y-67600000D03*
X58880000Y-68870000D03*
X58880000Y-70140000D03*
X57610000Y-63790000D03*
X57610000Y-65060000D03*
X57610000Y-66330000D03*
X57610000Y-67600000D03*
X57610000Y-68870000D03*
X57610000Y-70140000D03*
X56340000Y-63790000D03*
X56340000Y-65060000D03*
X56340000Y-66330000D03*
X56340000Y-67600000D03*
X56340000Y-68870000D03*
X56340000Y-70140000D03*
X55070000Y-63790000D03*
X55070000Y-65060000D03*
X55070000Y-66330000D03*
X55070000Y-67600000D03*
X55070000Y-68870000D03*
X55070000Y-70140000D03*
X53800000Y-63790000D03*
X52530000Y-63790000D03*
X51260000Y-63790000D03*
X53800000Y-65060000D03*
X53800000Y-66330000D03*
X53800000Y-67600000D03*
X53800000Y-68870000D03*
X53800000Y-70140000D03*
X52530000Y-65060000D03*
X51260000Y-65060000D03*
X52530000Y-66330000D03*
X51260000Y-66330000D03*
X56340000Y-34580000D03*
X55070000Y-34580000D03*
X27130000Y-34580000D03*
X28400000Y-34580000D03*
X57610000Y-35850000D03*
X57610000Y-37120000D03*
X57610000Y-38390000D03*
X56340000Y-35850000D03*
X56340000Y-37120000D03*
X38560000Y-39660000D03*
X49990000Y-39660000D03*
X56340000Y-38390000D03*
X55070000Y-38390000D03*
X55070000Y-37120000D03*
X55070000Y-35850000D03*
X53800000Y-34580000D03*
X52530000Y-34580000D03*
X53800000Y-35850000D03*
X53800000Y-37120000D03*
X53800000Y-38390000D03*
X52530000Y-38390000D03*
X51260000Y-38390000D03*
X49990000Y-38390000D03*
X52530000Y-35850000D03*
X52530000Y-37120000D03*
X48720000Y-38390000D03*
X47450000Y-38390000D03*
X47450000Y-34580000D03*
X48720000Y-34580000D03*
X49990000Y-34580000D03*
X51260000Y-34580000D03*
X51260000Y-35850000D03*
X51260000Y-37120000D03*
X49990000Y-35850000D03*
X49990000Y-37120000D03*
X48720000Y-35850000D03*
X48720000Y-37120000D03*
X47450000Y-35850000D03*
X46180000Y-34580000D03*
X47450000Y-37120000D03*
X46180000Y-38390000D03*
X44910000Y-38390000D03*
X46180000Y-35850000D03*
X46180000Y-37120000D03*
X44910000Y-35850000D03*
X43640000Y-34580000D03*
X44910000Y-34580000D03*
X41100000Y-34580000D03*
X42370000Y-34580000D03*
X43640000Y-35850000D03*
X44910000Y-37120000D03*
X43640000Y-38390000D03*
X43640000Y-37120000D03*
X41100000Y-35850000D03*
X42370000Y-35850000D03*
X42370000Y-37120000D03*
X42370000Y-38390000D03*
X39830000Y-34580000D03*
X30940000Y-34580000D03*
X29670000Y-34580000D03*
X32210000Y-34580000D03*
X36020000Y-34580000D03*
X38560000Y-34580000D03*
X37290000Y-34580000D03*
X33480000Y-34580000D03*
X34750000Y-34580000D03*
X41100000Y-38390000D03*
X39830000Y-38390000D03*
X38560000Y-38390000D03*
X41100000Y-37120000D03*
X39830000Y-35850000D03*
X39830000Y-37120000D03*
X38560000Y-37120000D03*
X38560000Y-35850000D03*
X37290000Y-35850000D03*
X36020000Y-35850000D03*
X34750000Y-35850000D03*
X33480000Y-35850000D03*
X32210000Y-35850000D03*
X30940000Y-35850000D03*
X28400000Y-35850000D03*
X29670000Y-35850000D03*
X27130000Y-35850000D03*
X27130000Y-37120000D03*
X28400000Y-37120000D03*
X29670000Y-37120000D03*
X30940000Y-37120000D03*
X37290000Y-37120000D03*
X36020000Y-37120000D03*
X34750000Y-37120000D03*
X33480000Y-37120000D03*
X32210000Y-37120000D03*
X37290000Y-38390000D03*
X37290000Y-39660000D03*
X37290000Y-40930000D03*
X36020000Y-38390000D03*
X34750000Y-38390000D03*
X36020000Y-39660000D03*
X27130000Y-38390000D03*
X28400000Y-38390000D03*
X30940000Y-38390000D03*
X29670000Y-38390000D03*
X32210000Y-38390000D03*
X33480000Y-38390000D03*
X27130000Y-39660000D03*
X27130000Y-40930000D03*
X27130000Y-42200000D03*
X27130000Y-43470000D03*
X30940000Y-39660000D03*
X29670000Y-39660000D03*
X28400000Y-39660000D03*
X34750000Y-39660000D03*
X33480000Y-39660000D03*
X32210000Y-39660000D03*
X28400000Y-40930000D03*
X28400000Y-42200000D03*
X29670000Y-40930000D03*
X30940000Y-40930000D03*
X36020000Y-40930000D03*
X34750000Y-40930000D03*
X32210000Y-40930000D03*
X33480000Y-40930000D03*
X29670000Y-42200000D03*
X28400000Y-43470000D03*
X29670000Y-43470000D03*
X37290000Y-42200000D03*
X34750000Y-42200000D03*
X33480000Y-42200000D03*
X30940000Y-42200000D03*
X32210000Y-42200000D03*
X36020000Y-42200000D03*
X37290000Y-43470000D03*
X32210000Y-43470000D03*
X32210000Y-44740000D03*
X30940000Y-43470000D03*
X37290000Y-44740000D03*
X34750000Y-44740000D03*
X34750000Y-43470000D03*
X36020000Y-43470000D03*
X33480000Y-43470000D03*
X36020000Y-44740000D03*
X33480000Y-44740000D03*
X30940000Y-44740000D03*
X27130000Y-44740000D03*
X29670000Y-44740000D03*
X28400000Y-44740000D03*
X27130000Y-46010000D03*
X28400000Y-47280000D03*
X29670000Y-46010000D03*
X34750000Y-46010000D03*
X37290000Y-46010000D03*
X36020000Y-46010000D03*
X32210000Y-46010000D03*
X30940000Y-46010000D03*
X33480000Y-46010000D03*
X37290000Y-47280000D03*
X36020000Y-47280000D03*
X34750000Y-47280000D03*
X33480000Y-47280000D03*
X32210000Y-47280000D03*
X30940000Y-47280000D03*
X29670000Y-47280000D03*
X28400000Y-46010000D03*
X27130000Y-47280000D03*
X37290000Y-48550000D03*
X36020000Y-48550000D03*
X34750000Y-48550000D03*
X33480000Y-48550000D03*
X32210000Y-48550000D03*
X30940000Y-48550000D03*
X29670000Y-48550000D03*
X28400000Y-48550000D03*
X27130000Y-48550000D03*
X38560000Y-51090000D03*
X37290000Y-49820000D03*
X36020000Y-49820000D03*
X34750000Y-49820000D03*
X33480000Y-49820000D03*
X32210000Y-49820000D03*
X30940000Y-49820000D03*
X29670000Y-49820000D03*
X28400000Y-49820000D03*
X27130000Y-49820000D03*
X37290000Y-51090000D03*
X36020000Y-51090000D03*
X34750000Y-51090000D03*
X33480000Y-51090000D03*
X32210000Y-51090000D03*
X30940000Y-51090000D03*
X29670000Y-51090000D03*
X28400000Y-51090000D03*
X27130000Y-51090000D03*
X37290000Y-52360000D03*
X36020000Y-52360000D03*
X34750000Y-52360000D03*
X33480000Y-52360000D03*
X32210000Y-52360000D03*
X30940000Y-52360000D03*
X27130000Y-52360000D03*
X29670000Y-52360000D03*
X28400000Y-52360000D03*
X27130000Y-53630000D03*
X27130000Y-54900000D03*
X27130000Y-56170000D03*
X28400000Y-53630000D03*
X29670000Y-53630000D03*
X28400000Y-54900000D03*
X30940000Y-53630000D03*
X32210000Y-53630000D03*
X33480000Y-53630000D03*
X37290000Y-53630000D03*
X34750000Y-53630000D03*
X36020000Y-53630000D03*
X29670000Y-54900000D03*
X30940000Y-54900000D03*
X33480000Y-54900000D03*
X32210000Y-54900000D03*
X37290000Y-54900000D03*
X34750000Y-54900000D03*
X36020000Y-54900000D03*
X28400000Y-56170000D03*
X27130000Y-57440000D03*
X29670000Y-56170000D03*
X30940000Y-56170000D03*
X32210000Y-56170000D03*
X33480000Y-56170000D03*
X34750000Y-56170000D03*
X37290000Y-56170000D03*
X36020000Y-56170000D03*
X38560000Y-62520000D03*
X37290000Y-57440000D03*
X36020000Y-57440000D03*
X37290000Y-58710000D03*
X34750000Y-57440000D03*
X36020000Y-58710000D03*
X37290000Y-59980000D03*
X33480000Y-57440000D03*
X28400000Y-57440000D03*
X27130000Y-58710000D03*
X29670000Y-57440000D03*
X32210000Y-57440000D03*
X30940000Y-57440000D03*
X28400000Y-58710000D03*
X27130000Y-59980000D03*
X29670000Y-58710000D03*
X28400000Y-59980000D03*
X34750000Y-58710000D03*
X33480000Y-58710000D03*
X30940000Y-58710000D03*
X32210000Y-58710000D03*
X29670000Y-59980000D03*
X30940000Y-59980000D03*
X32210000Y-59980000D03*
X34750000Y-59980000D03*
X33480000Y-59980000D03*
X36020000Y-59980000D03*
X37290000Y-61250000D03*
X27130000Y-61250000D03*
X27130000Y-70140000D03*
X27130000Y-68870000D03*
X27130000Y-62520000D03*
X27130000Y-63790000D03*
X27130000Y-65060000D03*
X27130000Y-66330000D03*
X27130000Y-67600000D03*
X28400000Y-70140000D03*
X28400000Y-68870000D03*
X28400000Y-67600000D03*
X28400000Y-66330000D03*
X28400000Y-65060000D03*
X28400000Y-63790000D03*
X28400000Y-61250000D03*
X29670000Y-61250000D03*
X28400000Y-62520000D03*
X33480000Y-61250000D03*
X32210000Y-61250000D03*
X30940000Y-61250000D03*
X37290000Y-62520000D03*
X36020000Y-61250000D03*
X34750000Y-61250000D03*
X30940000Y-62520000D03*
X29670000Y-62520000D03*
X29670000Y-63790000D03*
X32210000Y-62520000D03*
X30940000Y-63790000D03*
X33480000Y-62520000D03*
X32210000Y-63790000D03*
X29670000Y-65060000D03*
X36020000Y-62520000D03*
X34750000Y-62520000D03*
X33480000Y-63790000D03*
X30940000Y-65060000D03*
X29670000Y-66330000D03*
X29670000Y-67600000D03*
X29670000Y-68870000D03*
X29670000Y-70140000D03*
X34750000Y-63790000D03*
X36020000Y-63790000D03*
X51260000Y-67600000D03*
X52530000Y-67600000D03*
X52530000Y-70140000D03*
X52530000Y-68870000D03*
X51260000Y-70140000D03*
X51260000Y-68870000D03*
X49990000Y-63790000D03*
X48720000Y-63790000D03*
X30940000Y-66330000D03*
X32210000Y-65060000D03*
X30940000Y-70140000D03*
X30940000Y-68870000D03*
X30940000Y-67600000D03*
X32210000Y-66330000D03*
X32210000Y-67600000D03*
X32210000Y-68870000D03*
X32210000Y-70140000D03*
X33480000Y-70140000D03*
X37290000Y-70140000D03*
X36020000Y-70140000D03*
X34750000Y-70140000D03*
X33480000Y-68870000D03*
X33480000Y-67600000D03*
X33480000Y-66330000D03*
X33480000Y-65060000D03*
X34750000Y-65060000D03*
X34750000Y-68870000D03*
X34750000Y-67600000D03*
X34750000Y-66330000D03*
X36020000Y-68870000D03*
X36020000Y-67600000D03*
X37290000Y-63790000D03*
X38560000Y-63790000D03*
X36020000Y-66330000D03*
X36020000Y-65060000D03*
X37290000Y-68870000D03*
X37290000Y-67600000D03*
X37290000Y-66330000D03*
X37290000Y-65060000D03*
X39830000Y-63790000D03*
X49990000Y-70140000D03*
X38560000Y-70140000D03*
X39830000Y-70140000D03*
X41100000Y-70140000D03*
X42370000Y-70140000D03*
X43640000Y-70140000D03*
X49990000Y-68870000D03*
X49990000Y-65060000D03*
X48720000Y-66330000D03*
X49990000Y-66330000D03*
X49990000Y-67600000D03*
X48720000Y-65060000D03*
X48720000Y-68870000D03*
X48720000Y-67600000D03*
X48720000Y-70140000D03*
X47450000Y-63790000D03*
X46180000Y-63790000D03*
X44910000Y-63790000D03*
X43640000Y-63790000D03*
X42370000Y-63790000D03*
X41100000Y-63790000D03*
X47450000Y-67600000D03*
X47450000Y-65060000D03*
X47450000Y-66330000D03*
X47450000Y-68870000D03*
X47450000Y-70140000D03*
X46180000Y-70140000D03*
X46180000Y-68870000D03*
X46180000Y-66330000D03*
X46180000Y-67600000D03*
X46180000Y-65060000D03*
X44910000Y-65060000D03*
X38560000Y-65060000D03*
X38560000Y-66330000D03*
X38560000Y-68870000D03*
X38560000Y-67600000D03*
X39830000Y-65060000D03*
X39830000Y-66330000D03*
X39830000Y-67600000D03*
X39830000Y-68870000D03*
X41100000Y-65060000D03*
X42370000Y-65060000D03*
X43640000Y-65060000D03*
X41100000Y-66330000D03*
X41100000Y-67600000D03*
X41100000Y-68870000D03*
X42370000Y-66330000D03*
X44910000Y-66330000D03*
X43640000Y-66330000D03*
X44910000Y-67600000D03*
X42370000Y-67600000D03*
X43640000Y-67600000D03*
X42370000Y-68870000D03*
X43640000Y-68870000D03*
X44910000Y-68870000D03*
X44910000Y-70140000D03*
M02*
